<?xml version="1.0" encoding="utf-8" standalone="no"?>
<!DOCTYPE svg PUBLIC "-//W3C//DTD SVG 1.1//EN"
  "http://www.w3.org/Graphics/SVG/1.1/DTD/svg11.dtd">
<!-- Created with matplotlib (https://matplotlib.org/) -->
<svg height="288pt" version="1.1" viewBox="0 0 432 288" width="432pt" xmlns="http://www.w3.org/2000/svg" xmlns:xlink="http://www.w3.org/1999/xlink">
 <metadata>
  <rdf:RDF xmlns:cc="http://creativecommons.org/ns#" xmlns:dc="http://purl.org/dc/elements/1.1/" xmlns:rdf="http://www.w3.org/1999/02/22-rdf-syntax-ns#">
   <cc:Work>
    <dc:type rdf:resource="http://purl.org/dc/dcmitype/StillImage"/>
    <dc:date>2022-02-04T17:12:06.950339</dc:date>
    <dc:format>image/svg+xml</dc:format>
    <dc:creator>
     <cc:Agent>
      <dc:title>Matplotlib v3.3.0, https://matplotlib.org/</dc:title>
     </cc:Agent>
    </dc:creator>
   </cc:Work>
  </rdf:RDF>
 </metadata>
 <defs>
  <style type="text/css">*{stroke-linecap:butt;stroke-linejoin:round;}</style>
 </defs>
 <g id="figure_1">
  <g id="patch_1">
   <path d="M 0 288 
L 432 288 
L 432 0 
L 0 0 
z
" style="fill:#ffffff;"/>
  </g>
  <g id="axes_1">
   <g id="patch_2">
    <path d="M 54 252 
L 388.8 252 
L 388.8 34.56 
L 54 34.56 
z
" style="fill:#eaeaf2;"/>
   </g>
   <g id="matplotlib.axis_1">
    <g id="xtick_1">
     <g id="text_1">
      <!-- dropseq -->
      <g style="fill:#262626;" transform="translate(76.459688 277.037422)scale(0.165 -0.165)">
       <defs>
        <path d="M 45.40625 46.390625 
L 45.40625 75.984375 
L 54.390625 75.984375 
L 54.390625 0 
L 45.40625 0 
L 45.40625 8.203125 
Q 42.578125 3.328125 38.25 0.953125 
Q 33.9375 -1.421875 27.875 -1.421875 
Q 17.96875 -1.421875 11.734375 6.484375 
Q 5.515625 14.40625 5.515625 27.296875 
Q 5.515625 40.1875 11.734375 48.09375 
Q 17.96875 56 27.875 56 
Q 33.9375 56 38.25 53.625 
Q 42.578125 51.265625 45.40625 46.390625 
z
M 14.796875 27.296875 
Q 14.796875 17.390625 18.875 11.75 
Q 22.953125 6.109375 30.078125 6.109375 
Q 37.203125 6.109375 41.296875 11.75 
Q 45.40625 17.390625 45.40625 27.296875 
Q 45.40625 37.203125 41.296875 42.84375 
Q 37.203125 48.484375 30.078125 48.484375 
Q 22.953125 48.484375 18.875 42.84375 
Q 14.796875 37.203125 14.796875 27.296875 
z
" id="DejaVuSans-100"/>
        <path d="M 41.109375 46.296875 
Q 39.59375 47.171875 37.8125 47.578125 
Q 36.03125 48 33.890625 48 
Q 26.265625 48 22.1875 43.046875 
Q 18.109375 38.09375 18.109375 28.8125 
L 18.109375 0 
L 9.078125 0 
L 9.078125 54.6875 
L 18.109375 54.6875 
L 18.109375 46.1875 
Q 20.953125 51.171875 25.484375 53.578125 
Q 30.03125 56 36.53125 56 
Q 37.453125 56 38.578125 55.875 
Q 39.703125 55.765625 41.0625 55.515625 
z
" id="DejaVuSans-114"/>
        <path d="M 30.609375 48.390625 
Q 23.390625 48.390625 19.1875 42.75 
Q 14.984375 37.109375 14.984375 27.296875 
Q 14.984375 17.484375 19.15625 11.84375 
Q 23.34375 6.203125 30.609375 6.203125 
Q 37.796875 6.203125 41.984375 11.859375 
Q 46.1875 17.53125 46.1875 27.296875 
Q 46.1875 37.015625 41.984375 42.703125 
Q 37.796875 48.390625 30.609375 48.390625 
z
M 30.609375 56 
Q 42.328125 56 49.015625 48.375 
Q 55.71875 40.765625 55.71875 27.296875 
Q 55.71875 13.875 49.015625 6.21875 
Q 42.328125 -1.421875 30.609375 -1.421875 
Q 18.84375 -1.421875 12.171875 6.21875 
Q 5.515625 13.875 5.515625 27.296875 
Q 5.515625 40.765625 12.171875 48.375 
Q 18.84375 56 30.609375 56 
z
" id="DejaVuSans-111"/>
        <path d="M 18.109375 8.203125 
L 18.109375 -20.796875 
L 9.078125 -20.796875 
L 9.078125 54.6875 
L 18.109375 54.6875 
L 18.109375 46.390625 
Q 20.953125 51.265625 25.265625 53.625 
Q 29.59375 56 35.59375 56 
Q 45.5625 56 51.78125 48.09375 
Q 58.015625 40.1875 58.015625 27.296875 
Q 58.015625 14.40625 51.78125 6.484375 
Q 45.5625 -1.421875 35.59375 -1.421875 
Q 29.59375 -1.421875 25.265625 0.953125 
Q 20.953125 3.328125 18.109375 8.203125 
z
M 48.6875 27.296875 
Q 48.6875 37.203125 44.609375 42.84375 
Q 40.53125 48.484375 33.40625 48.484375 
Q 26.265625 48.484375 22.1875 42.84375 
Q 18.109375 37.203125 18.109375 27.296875 
Q 18.109375 17.390625 22.1875 11.75 
Q 26.265625 6.109375 33.40625 6.109375 
Q 40.53125 6.109375 44.609375 11.75 
Q 48.6875 17.390625 48.6875 27.296875 
z
" id="DejaVuSans-112"/>
        <path d="M 44.28125 53.078125 
L 44.28125 44.578125 
Q 40.484375 46.53125 36.375 47.5 
Q 32.28125 48.484375 27.875 48.484375 
Q 21.1875 48.484375 17.84375 46.4375 
Q 14.5 44.390625 14.5 40.28125 
Q 14.5 37.15625 16.890625 35.375 
Q 19.28125 33.59375 26.515625 31.984375 
L 29.59375 31.296875 
Q 39.15625 29.25 43.1875 25.515625 
Q 47.21875 21.78125 47.21875 15.09375 
Q 47.21875 7.46875 41.1875 3.015625 
Q 35.15625 -1.421875 24.609375 -1.421875 
Q 20.21875 -1.421875 15.453125 -0.5625 
Q 10.6875 0.296875 5.421875 2 
L 5.421875 11.28125 
Q 10.40625 8.6875 15.234375 7.390625 
Q 20.0625 6.109375 24.8125 6.109375 
Q 31.15625 6.109375 34.5625 8.28125 
Q 37.984375 10.453125 37.984375 14.40625 
Q 37.984375 18.0625 35.515625 20.015625 
Q 33.0625 21.96875 24.703125 23.78125 
L 21.578125 24.515625 
Q 13.234375 26.265625 9.515625 29.90625 
Q 5.8125 33.546875 5.8125 39.890625 
Q 5.8125 47.609375 11.28125 51.796875 
Q 16.75 56 26.8125 56 
Q 31.78125 56 36.171875 55.265625 
Q 40.578125 54.546875 44.28125 53.078125 
z
" id="DejaVuSans-115"/>
        <path d="M 56.203125 29.59375 
L 56.203125 25.203125 
L 14.890625 25.203125 
Q 15.484375 15.921875 20.484375 11.0625 
Q 25.484375 6.203125 34.421875 6.203125 
Q 39.59375 6.203125 44.453125 7.46875 
Q 49.3125 8.734375 54.109375 11.28125 
L 54.109375 2.78125 
Q 49.265625 0.734375 44.1875 -0.34375 
Q 39.109375 -1.421875 33.890625 -1.421875 
Q 20.796875 -1.421875 13.15625 6.1875 
Q 5.515625 13.8125 5.515625 26.8125 
Q 5.515625 40.234375 12.765625 48.109375 
Q 20.015625 56 32.328125 56 
Q 43.359375 56 49.78125 48.890625 
Q 56.203125 41.796875 56.203125 29.59375 
z
M 47.21875 32.234375 
Q 47.125 39.59375 43.09375 43.984375 
Q 39.0625 48.390625 32.421875 48.390625 
Q 24.90625 48.390625 20.390625 44.140625 
Q 15.875 39.890625 15.1875 32.171875 
z
" id="DejaVuSans-101"/>
        <path d="M 14.796875 27.296875 
Q 14.796875 17.390625 18.875 11.75 
Q 22.953125 6.109375 30.078125 6.109375 
Q 37.203125 6.109375 41.296875 11.75 
Q 45.40625 17.390625 45.40625 27.296875 
Q 45.40625 37.203125 41.296875 42.84375 
Q 37.203125 48.484375 30.078125 48.484375 
Q 22.953125 48.484375 18.875 42.84375 
Q 14.796875 37.203125 14.796875 27.296875 
z
M 45.40625 8.203125 
Q 42.578125 3.328125 38.25 0.953125 
Q 33.9375 -1.421875 27.875 -1.421875 
Q 17.96875 -1.421875 11.734375 6.484375 
Q 5.515625 14.40625 5.515625 27.296875 
Q 5.515625 40.1875 11.734375 48.09375 
Q 17.96875 56 27.875 56 
Q 33.9375 56 38.25 53.625 
Q 42.578125 51.265625 45.40625 46.390625 
L 45.40625 54.6875 
L 54.390625 54.6875 
L 54.390625 -20.796875 
L 45.40625 -20.796875 
z
" id="DejaVuSans-113"/>
       </defs>
       <use xlink:href="#DejaVuSans-100"/>
       <use x="63.476562" xlink:href="#DejaVuSans-114"/>
       <use x="102.339844" xlink:href="#DejaVuSans-111"/>
       <use x="163.521484" xlink:href="#DejaVuSans-112"/>
       <use x="226.998047" xlink:href="#DejaVuSans-115"/>
       <use x="279.097656" xlink:href="#DejaVuSans-101"/>
       <use x="340.621094" xlink:href="#DejaVuSans-113"/>
      </g>
     </g>
    </g>
    <g id="xtick_2">
     <g id="text_2">
      <!-- indrop -->
      <g style="fill:#262626;" transform="translate(195.15082 277.037422)scale(0.165 -0.165)">
       <defs>
        <path d="M 9.421875 54.6875 
L 18.40625 54.6875 
L 18.40625 0 
L 9.421875 0 
z
M 9.421875 75.984375 
L 18.40625 75.984375 
L 18.40625 64.59375 
L 9.421875 64.59375 
z
" id="DejaVuSans-105"/>
        <path d="M 54.890625 33.015625 
L 54.890625 0 
L 45.90625 0 
L 45.90625 32.71875 
Q 45.90625 40.484375 42.875 44.328125 
Q 39.84375 48.1875 33.796875 48.1875 
Q 26.515625 48.1875 22.3125 43.546875 
Q 18.109375 38.921875 18.109375 30.90625 
L 18.109375 0 
L 9.078125 0 
L 9.078125 54.6875 
L 18.109375 54.6875 
L 18.109375 46.1875 
Q 21.34375 51.125 25.703125 53.5625 
Q 30.078125 56 35.796875 56 
Q 45.21875 56 50.046875 50.171875 
Q 54.890625 44.34375 54.890625 33.015625 
z
" id="DejaVuSans-110"/>
       </defs>
       <use xlink:href="#DejaVuSans-105"/>
       <use x="27.783203" xlink:href="#DejaVuSans-110"/>
       <use x="91.162109" xlink:href="#DejaVuSans-100"/>
       <use x="154.638672" xlink:href="#DejaVuSans-114"/>
       <use x="193.501953" xlink:href="#DejaVuSans-111"/>
       <use x="254.683594" xlink:href="#DejaVuSans-112"/>
      </g>
     </g>
    </g>
    <g id="xtick_3">
     <g id="text_3">
      <!-- hydrop -->
      <g style="fill:#262626;" transform="translate(304.159805 277.037422)scale(0.165 -0.165)">
       <defs>
        <path d="M 54.890625 33.015625 
L 54.890625 0 
L 45.90625 0 
L 45.90625 32.71875 
Q 45.90625 40.484375 42.875 44.328125 
Q 39.84375 48.1875 33.796875 48.1875 
Q 26.515625 48.1875 22.3125 43.546875 
Q 18.109375 38.921875 18.109375 30.90625 
L 18.109375 0 
L 9.078125 0 
L 9.078125 75.984375 
L 18.109375 75.984375 
L 18.109375 46.1875 
Q 21.34375 51.125 25.703125 53.5625 
Q 30.078125 56 35.796875 56 
Q 45.21875 56 50.046875 50.171875 
Q 54.890625 44.34375 54.890625 33.015625 
z
" id="DejaVuSans-104"/>
        <path d="M 32.171875 -5.078125 
Q 28.375 -14.84375 24.75 -17.8125 
Q 21.140625 -20.796875 15.09375 -20.796875 
L 7.90625 -20.796875 
L 7.90625 -13.28125 
L 13.1875 -13.28125 
Q 16.890625 -13.28125 18.9375 -11.515625 
Q 21 -9.765625 23.484375 -3.21875 
L 25.09375 0.875 
L 2.984375 54.6875 
L 12.5 54.6875 
L 29.59375 11.921875 
L 46.6875 54.6875 
L 56.203125 54.6875 
z
" id="DejaVuSans-121"/>
       </defs>
       <use xlink:href="#DejaVuSans-104"/>
       <use x="63.378906" xlink:href="#DejaVuSans-121"/>
       <use x="122.558594" xlink:href="#DejaVuSans-100"/>
       <use x="186.035156" xlink:href="#DejaVuSans-114"/>
       <use x="224.898438" xlink:href="#DejaVuSans-111"/>
       <use x="286.080078" xlink:href="#DejaVuSans-112"/>
      </g>
     </g>
    </g>
    <g id="text_4">
     <!-- method -->
     <g style="fill:#262626;" transform="translate(186.643125 298.146094)scale(0.18 -0.18)">
      <defs>
       <path d="M 52 44.1875 
Q 55.375 50.25 60.0625 53.125 
Q 64.75 56 71.09375 56 
Q 79.640625 56 84.28125 50.015625 
Q 88.921875 44.046875 88.921875 33.015625 
L 88.921875 0 
L 79.890625 0 
L 79.890625 32.71875 
Q 79.890625 40.578125 77.09375 44.375 
Q 74.3125 48.1875 68.609375 48.1875 
Q 61.625 48.1875 57.5625 43.546875 
Q 53.515625 38.921875 53.515625 30.90625 
L 53.515625 0 
L 44.484375 0 
L 44.484375 32.71875 
Q 44.484375 40.625 41.703125 44.40625 
Q 38.921875 48.1875 33.109375 48.1875 
Q 26.21875 48.1875 22.15625 43.53125 
Q 18.109375 38.875 18.109375 30.90625 
L 18.109375 0 
L 9.078125 0 
L 9.078125 54.6875 
L 18.109375 54.6875 
L 18.109375 46.1875 
Q 21.1875 51.21875 25.484375 53.609375 
Q 29.78125 56 35.6875 56 
Q 41.65625 56 45.828125 52.96875 
Q 50 49.953125 52 44.1875 
z
" id="DejaVuSans-109"/>
       <path d="M 18.3125 70.21875 
L 18.3125 54.6875 
L 36.8125 54.6875 
L 36.8125 47.703125 
L 18.3125 47.703125 
L 18.3125 18.015625 
Q 18.3125 11.328125 20.140625 9.421875 
Q 21.96875 7.515625 27.59375 7.515625 
L 36.8125 7.515625 
L 36.8125 0 
L 27.59375 0 
Q 17.1875 0 13.234375 3.875 
Q 9.28125 7.765625 9.28125 18.015625 
L 9.28125 47.703125 
L 2.6875 47.703125 
L 2.6875 54.6875 
L 9.28125 54.6875 
L 9.28125 70.21875 
z
" id="DejaVuSans-116"/>
      </defs>
      <use xlink:href="#DejaVuSans-109"/>
      <use x="97.412109" xlink:href="#DejaVuSans-101"/>
      <use x="158.935547" xlink:href="#DejaVuSans-116"/>
      <use x="198.144531" xlink:href="#DejaVuSans-104"/>
      <use x="261.523438" xlink:href="#DejaVuSans-111"/>
      <use x="322.705078" xlink:href="#DejaVuSans-100"/>
     </g>
    </g>
   </g>
   <g id="matplotlib.axis_2">
    <g id="ytick_1">
     <g id="line2d_1">
      <path clip-path="url(#p9989afa4a9)" d="M 54 252 
L 388.8 252 
" style="fill:none;stroke:#ffffff;stroke-linecap:round;stroke-width:1.5;"/>
     </g>
     <g id="text_5">
      <!-- 0 -->
      <g style="fill:#262626;" transform="translate(31.001875 258.268711)scale(0.165 -0.165)">
       <defs>
        <path d="M 31.78125 66.40625 
Q 24.171875 66.40625 20.328125 58.90625 
Q 16.5 51.421875 16.5 36.375 
Q 16.5 21.390625 20.328125 13.890625 
Q 24.171875 6.390625 31.78125 6.390625 
Q 39.453125 6.390625 43.28125 13.890625 
Q 47.125 21.390625 47.125 36.375 
Q 47.125 51.421875 43.28125 58.90625 
Q 39.453125 66.40625 31.78125 66.40625 
z
M 31.78125 74.21875 
Q 44.046875 74.21875 50.515625 64.515625 
Q 56.984375 54.828125 56.984375 36.375 
Q 56.984375 17.96875 50.515625 8.265625 
Q 44.046875 -1.421875 31.78125 -1.421875 
Q 19.53125 -1.421875 13.0625 8.265625 
Q 6.59375 17.96875 6.59375 36.375 
Q 6.59375 54.828125 13.0625 64.515625 
Q 19.53125 74.21875 31.78125 74.21875 
z
" id="DejaVuSans-48"/>
       </defs>
       <use xlink:href="#DejaVuSans-48"/>
      </g>
     </g>
    </g>
    <g id="ytick_2">
     <g id="line2d_2">
      <path clip-path="url(#p9989afa4a9)" d="M 54 205.405714 
L 388.8 205.405714 
" style="fill:none;stroke:#ffffff;stroke-linecap:round;stroke-width:1.5;"/>
     </g>
     <g id="text_6">
      <!-- 1500 -->
      <g style="fill:#262626;" transform="translate(-0.4925 211.674425)scale(0.165 -0.165)">
       <defs>
        <path d="M 12.40625 8.296875 
L 28.515625 8.296875 
L 28.515625 63.921875 
L 10.984375 60.40625 
L 10.984375 69.390625 
L 28.421875 72.90625 
L 38.28125 72.90625 
L 38.28125 8.296875 
L 54.390625 8.296875 
L 54.390625 0 
L 12.40625 0 
z
" id="DejaVuSans-49"/>
        <path d="M 10.796875 72.90625 
L 49.515625 72.90625 
L 49.515625 64.59375 
L 19.828125 64.59375 
L 19.828125 46.734375 
Q 21.96875 47.46875 24.109375 47.828125 
Q 26.265625 48.1875 28.421875 48.1875 
Q 40.625 48.1875 47.75 41.5 
Q 54.890625 34.8125 54.890625 23.390625 
Q 54.890625 11.625 47.5625 5.09375 
Q 40.234375 -1.421875 26.90625 -1.421875 
Q 22.3125 -1.421875 17.546875 -0.640625 
Q 12.796875 0.140625 7.71875 1.703125 
L 7.71875 11.625 
Q 12.109375 9.234375 16.796875 8.0625 
Q 21.484375 6.890625 26.703125 6.890625 
Q 35.15625 6.890625 40.078125 11.328125 
Q 45.015625 15.765625 45.015625 23.390625 
Q 45.015625 31 40.078125 35.4375 
Q 35.15625 39.890625 26.703125 39.890625 
Q 22.75 39.890625 18.8125 39.015625 
Q 14.890625 38.140625 10.796875 36.28125 
z
" id="DejaVuSans-53"/>
       </defs>
       <use xlink:href="#DejaVuSans-49"/>
       <use x="63.623047" xlink:href="#DejaVuSans-53"/>
       <use x="127.246094" xlink:href="#DejaVuSans-48"/>
       <use x="190.869141" xlink:href="#DejaVuSans-48"/>
      </g>
     </g>
    </g>
    <g id="ytick_3">
     <g id="line2d_3">
      <path clip-path="url(#p9989afa4a9)" d="M 54 158.811429 
L 388.8 158.811429 
" style="fill:none;stroke:#ffffff;stroke-linecap:round;stroke-width:1.5;"/>
     </g>
     <g id="text_7">
      <!-- 3000 -->
      <g style="fill:#262626;" transform="translate(-0.4925 165.08014)scale(0.165 -0.165)">
       <defs>
        <path d="M 40.578125 39.3125 
Q 47.65625 37.796875 51.625 33 
Q 55.609375 28.21875 55.609375 21.1875 
Q 55.609375 10.40625 48.1875 4.484375 
Q 40.765625 -1.421875 27.09375 -1.421875 
Q 22.515625 -1.421875 17.65625 -0.515625 
Q 12.796875 0.390625 7.625 2.203125 
L 7.625 11.71875 
Q 11.71875 9.328125 16.59375 8.109375 
Q 21.484375 6.890625 26.8125 6.890625 
Q 36.078125 6.890625 40.9375 10.546875 
Q 45.796875 14.203125 45.796875 21.1875 
Q 45.796875 27.640625 41.28125 31.265625 
Q 36.765625 34.90625 28.71875 34.90625 
L 20.21875 34.90625 
L 20.21875 43.015625 
L 29.109375 43.015625 
Q 36.375 43.015625 40.234375 45.921875 
Q 44.09375 48.828125 44.09375 54.296875 
Q 44.09375 59.90625 40.109375 62.90625 
Q 36.140625 65.921875 28.71875 65.921875 
Q 24.65625 65.921875 20.015625 65.03125 
Q 15.375 64.15625 9.8125 62.3125 
L 9.8125 71.09375 
Q 15.4375 72.65625 20.34375 73.4375 
Q 25.25 74.21875 29.59375 74.21875 
Q 40.828125 74.21875 47.359375 69.109375 
Q 53.90625 64.015625 53.90625 55.328125 
Q 53.90625 49.265625 50.4375 45.09375 
Q 46.96875 40.921875 40.578125 39.3125 
z
" id="DejaVuSans-51"/>
       </defs>
       <use xlink:href="#DejaVuSans-51"/>
       <use x="63.623047" xlink:href="#DejaVuSans-48"/>
       <use x="127.246094" xlink:href="#DejaVuSans-48"/>
       <use x="190.869141" xlink:href="#DejaVuSans-48"/>
      </g>
     </g>
    </g>
    <g id="ytick_4">
     <g id="line2d_4">
      <path clip-path="url(#p9989afa4a9)" d="M 54 112.217143 
L 388.8 112.217143 
" style="fill:none;stroke:#ffffff;stroke-linecap:round;stroke-width:1.5;"/>
     </g>
     <g id="text_8">
      <!-- 4500 -->
      <g style="fill:#262626;" transform="translate(-0.4925 118.485854)scale(0.165 -0.165)">
       <defs>
        <path d="M 37.796875 64.3125 
L 12.890625 25.390625 
L 37.796875 25.390625 
z
M 35.203125 72.90625 
L 47.609375 72.90625 
L 47.609375 25.390625 
L 58.015625 25.390625 
L 58.015625 17.1875 
L 47.609375 17.1875 
L 47.609375 0 
L 37.796875 0 
L 37.796875 17.1875 
L 4.890625 17.1875 
L 4.890625 26.703125 
z
" id="DejaVuSans-52"/>
       </defs>
       <use xlink:href="#DejaVuSans-52"/>
       <use x="63.623047" xlink:href="#DejaVuSans-53"/>
       <use x="127.246094" xlink:href="#DejaVuSans-48"/>
       <use x="190.869141" xlink:href="#DejaVuSans-48"/>
      </g>
     </g>
    </g>
    <g id="ytick_5">
     <g id="line2d_5">
      <path clip-path="url(#p9989afa4a9)" d="M 54 65.622857 
L 388.8 65.622857 
" style="fill:none;stroke:#ffffff;stroke-linecap:round;stroke-width:1.5;"/>
     </g>
     <g id="text_9">
      <!-- 6000 -->
      <g style="fill:#262626;" transform="translate(-0.4925 71.891568)scale(0.165 -0.165)">
       <defs>
        <path d="M 33.015625 40.375 
Q 26.375 40.375 22.484375 35.828125 
Q 18.609375 31.296875 18.609375 23.390625 
Q 18.609375 15.53125 22.484375 10.953125 
Q 26.375 6.390625 33.015625 6.390625 
Q 39.65625 6.390625 43.53125 10.953125 
Q 47.40625 15.53125 47.40625 23.390625 
Q 47.40625 31.296875 43.53125 35.828125 
Q 39.65625 40.375 33.015625 40.375 
z
M 52.59375 71.296875 
L 52.59375 62.3125 
Q 48.875 64.0625 45.09375 64.984375 
Q 41.3125 65.921875 37.59375 65.921875 
Q 27.828125 65.921875 22.671875 59.328125 
Q 17.53125 52.734375 16.796875 39.40625 
Q 19.671875 43.65625 24.015625 45.921875 
Q 28.375 48.1875 33.59375 48.1875 
Q 44.578125 48.1875 50.953125 41.515625 
Q 57.328125 34.859375 57.328125 23.390625 
Q 57.328125 12.15625 50.6875 5.359375 
Q 44.046875 -1.421875 33.015625 -1.421875 
Q 20.359375 -1.421875 13.671875 8.265625 
Q 6.984375 17.96875 6.984375 36.375 
Q 6.984375 53.65625 15.1875 63.9375 
Q 23.390625 74.21875 37.203125 74.21875 
Q 40.921875 74.21875 44.703125 73.484375 
Q 48.484375 72.75 52.59375 71.296875 
z
" id="DejaVuSans-54"/>
       </defs>
       <use xlink:href="#DejaVuSans-54"/>
       <use x="63.623047" xlink:href="#DejaVuSans-48"/>
       <use x="127.246094" xlink:href="#DejaVuSans-48"/>
       <use x="190.869141" xlink:href="#DejaVuSans-48"/>
      </g>
     </g>
    </g>
    <g id="text_10">
     <!-- counts -->
     <g style="fill:#262626;" transform="translate(-8.235938 173.359688)rotate(-90)scale(0.18 -0.18)">
      <defs>
       <path d="M 48.78125 52.59375 
L 48.78125 44.1875 
Q 44.96875 46.296875 41.140625 47.34375 
Q 37.3125 48.390625 33.40625 48.390625 
Q 24.65625 48.390625 19.8125 42.84375 
Q 14.984375 37.3125 14.984375 27.296875 
Q 14.984375 17.28125 19.8125 11.734375 
Q 24.65625 6.203125 33.40625 6.203125 
Q 37.3125 6.203125 41.140625 7.25 
Q 44.96875 8.296875 48.78125 10.40625 
L 48.78125 2.09375 
Q 45.015625 0.34375 40.984375 -0.53125 
Q 36.96875 -1.421875 32.421875 -1.421875 
Q 20.0625 -1.421875 12.78125 6.34375 
Q 5.515625 14.109375 5.515625 27.296875 
Q 5.515625 40.671875 12.859375 48.328125 
Q 20.21875 56 33.015625 56 
Q 37.15625 56 41.109375 55.140625 
Q 45.0625 54.296875 48.78125 52.59375 
z
" id="DejaVuSans-99"/>
       <path d="M 8.5 21.578125 
L 8.5 54.6875 
L 17.484375 54.6875 
L 17.484375 21.921875 
Q 17.484375 14.15625 20.5 10.265625 
Q 23.53125 6.390625 29.59375 6.390625 
Q 36.859375 6.390625 41.078125 11.03125 
Q 45.3125 15.671875 45.3125 23.6875 
L 45.3125 54.6875 
L 54.296875 54.6875 
L 54.296875 0 
L 45.3125 0 
L 45.3125 8.40625 
Q 42.046875 3.421875 37.71875 1 
Q 33.40625 -1.421875 27.6875 -1.421875 
Q 18.265625 -1.421875 13.375 4.4375 
Q 8.5 10.296875 8.5 21.578125 
z
M 31.109375 56 
z
" id="DejaVuSans-117"/>
      </defs>
      <use xlink:href="#DejaVuSans-99"/>
      <use x="54.980469" xlink:href="#DejaVuSans-111"/>
      <use x="116.162109" xlink:href="#DejaVuSans-117"/>
      <use x="179.541016" xlink:href="#DejaVuSans-110"/>
      <use x="242.919922" xlink:href="#DejaVuSans-116"/>
      <use x="282.128906" xlink:href="#DejaVuSans-115"/>
     </g>
    </g>
   </g>
   <g id="PolyCollection_1">
    <path clip-path="url(#p9989afa4a9)" d="M 109.8 247.157527 
L 109.525865 247.157527 
L 106.670589 244.153462 
L 95.045777 241.149396 
L 75.989206 238.145331 
L 65.16 235.141266 
L 68.670449 232.137201 
L 77.757487 229.133135 
L 85.779012 226.12907 
L 91.551771 223.125005 
L 95.426025 220.12094 
L 97.824958 217.116874 
L 99.572349 214.112809 
L 101.178829 211.108744 
L 102.460875 208.104679 
L 103.351462 205.100613 
L 104.069144 202.096548 
L 104.729675 199.092483 
L 105.412235 196.088418 
L 106.026415 193.084352 
L 106.465091 190.080287 
L 106.841091 187.076222 
L 107.254828 184.072157 
L 107.578185 181.068091 
L 107.797046 178.064026 
L 108.057531 175.059961 
L 108.284257 172.055896 
L 108.435999 169.05183 
L 108.561986 166.047765 
L 108.696051 163.0437 
L 108.867376 160.039635 
L 108.967794 157.035569 
L 108.984523 154.031504 
L 109.025438 151.027439 
L 109.109015 148.023374 
L 109.208231 145.019308 
L 109.2999 142.015243 
L 109.349538 139.011178 
L 109.35972 136.007113 
L 109.370439 133.003047 
L 109.428327 129.998982 
L 109.493262 126.994917 
L 109.519392 123.990852 
L 109.543844 120.986786 
L 109.581619 117.982721 
L 109.610782 114.978656 
L 109.618603 111.974591 
L 109.621519 108.970526 
L 109.618405 105.96646 
L 109.627789 102.962395 
L 109.659801 99.95833 
L 109.672504 96.954265 
L 109.686457 93.950199 
L 109.709061 90.946134 
L 109.722513 87.942069 
L 109.737617 84.938004 
L 109.739504 81.933938 
L 109.731483 78.929873 
L 109.731712 75.925808 
L 109.740472 72.921743 
L 109.745136 69.917677 
L 109.74917 66.913612 
L 109.75674 63.909547 
L 109.762112 60.905482 
L 109.760088 57.901416 
L 109.766622 54.897351 
L 109.778002 51.893286 
L 109.777526 48.889221 
L 109.774299 45.885155 
L 109.780997 42.88109 
L 109.787814 39.877025 
L 109.782237 36.87296 
L 109.776515 33.868894 
L 109.779364 30.864829 
L 109.784354 27.860764 
L 109.788619 24.856699 
L 109.791514 21.852633 
L 109.791346 18.848568 
L 109.789564 15.844503 
L 109.788509 12.840438 
L 109.79027 9.836372 
L 109.795581 6.832307 
L 109.79904 3.828242 
L 109.799923 0.824177 
L 109.799998 -2.179889 
L 109.8 -5.183954 
L 109.8 -8.188019 
L 109.799998 -11.192084 
L 109.799929 -14.19615 
L 109.79919 -17.200215 
L 109.7974 -20.20428 
L 109.797638 -23.208345 
L 109.799393 -26.212411 
L 109.799956 -29.216476 
L 109.799999 -32.220541 
L 109.799996 -35.224606 
L 109.799871 -38.228672 
L 109.798863 -41.232737 
L 109.797175 -44.236802 
L 109.798016 -47.240867 
L 109.799606 -50.244933 
L 109.8 -50.244933 
L 109.8 -50.244933 
L 109.8 -47.240867 
L 109.8 -44.236802 
L 109.8 -41.232737 
L 109.8 -38.228672 
L 109.8 -35.224606 
L 109.8 -32.220541 
L 109.8 -29.216476 
L 109.8 -26.212411 
L 109.8 -23.208345 
L 109.8 -20.20428 
L 109.8 -17.200215 
L 109.8 -14.19615 
L 109.8 -11.192084 
L 109.8 -8.188019 
L 109.8 -5.183954 
L 109.8 -2.179889 
L 109.8 0.824177 
L 109.8 3.828242 
L 109.8 6.832307 
L 109.8 9.836372 
L 109.8 12.840438 
L 109.8 15.844503 
L 109.8 18.848568 
L 109.8 21.852633 
L 109.8 24.856699 
L 109.8 27.860764 
L 109.8 30.864829 
L 109.8 33.868894 
L 109.8 36.87296 
L 109.8 39.877025 
L 109.8 42.88109 
L 109.8 45.885155 
L 109.8 48.889221 
L 109.8 51.893286 
L 109.8 54.897351 
L 109.8 57.901416 
L 109.8 60.905482 
L 109.8 63.909547 
L 109.8 66.913612 
L 109.8 69.917677 
L 109.8 72.921743 
L 109.8 75.925808 
L 109.8 78.929873 
L 109.8 81.933938 
L 109.8 84.938004 
L 109.8 87.942069 
L 109.8 90.946134 
L 109.8 93.950199 
L 109.8 96.954265 
L 109.8 99.95833 
L 109.8 102.962395 
L 109.8 105.96646 
L 109.8 108.970526 
L 109.8 111.974591 
L 109.8 114.978656 
L 109.8 117.982721 
L 109.8 120.986786 
L 109.8 123.990852 
L 109.8 126.994917 
L 109.8 129.998982 
L 109.8 133.003047 
L 109.8 136.007113 
L 109.8 139.011178 
L 109.8 142.015243 
L 109.8 145.019308 
L 109.8 148.023374 
L 109.8 151.027439 
L 109.8 154.031504 
L 109.8 157.035569 
L 109.8 160.039635 
L 109.8 163.0437 
L 109.8 166.047765 
L 109.8 169.05183 
L 109.8 172.055896 
L 109.8 175.059961 
L 109.8 178.064026 
L 109.8 181.068091 
L 109.8 184.072157 
L 109.8 187.076222 
L 109.8 190.080287 
L 109.8 193.084352 
L 109.8 196.088418 
L 109.8 199.092483 
L 109.8 202.096548 
L 109.8 205.100613 
L 109.8 208.104679 
L 109.8 211.108744 
L 109.8 214.112809 
L 109.8 217.116874 
L 109.8 220.12094 
L 109.8 223.125005 
L 109.8 226.12907 
L 109.8 229.133135 
L 109.8 232.137201 
L 109.8 235.141266 
L 109.8 238.145331 
L 109.8 241.149396 
L 109.8 244.153462 
L 109.8 247.157527 
z
" style="fill:#3274a1;stroke:#3f3f3f;stroke-width:2.25;"/>
   </g>
   <g id="PolyCollection_2">
    <path clip-path="url(#p9989afa4a9)" d="M 109.962055 255.417394 
L 109.8 255.417394 
L 109.8 236.084678 
L 109.8 216.751961 
L 109.8 197.419245 
L 109.8 178.086529 
L 109.8 158.753813 
L 109.8 139.421097 
L 109.8 120.08838 
L 109.8 100.755664 
L 109.8 81.422948 
L 109.8 62.090232 
L 109.8 42.757516 
L 109.8 23.4248 
L 109.8 4.092083 
L 109.8 -15.240633 
L 109.8 -34.573349 
L 109.8 -53.906065 
L 109.8 -73.238781 
L 109.8 -92.571497 
L 109.8 -111.904214 
L 109.8 -131.23693 
L 109.8 -150.569646 
L 109.8 -169.902362 
L 109.8 -189.235078 
L 109.8 -208.567795 
L 109.8 -227.900511 
L 109.8 -247.233227 
L 109.8 -266.565943 
L 109.8 -285.898659 
L 109.8 -305.231375 
L 109.8 -324.564092 
L 109.8 -343.896808 
L 109.8 -363.229524 
L 109.8 -382.56224 
L 109.8 -401.894956 
L 109.8 -421.227673 
L 109.8 -440.560389 
L 109.8 -459.893105 
L 109.8 -479.225821 
L 109.8 -498.558537 
L 109.8 -517.891253 
L 109.8 -537.22397 
L 109.8 -556.556686 
L 109.8 -575.889402 
L 109.8 -595.222118 
L 109.8 -614.554834 
L 109.8 -633.887551 
L 109.8 -653.220267 
L 109.8 -672.552983 
L 109.8 -691.885699 
L 109.8 -711.218415 
L 109.8 -730.551131 
L 109.8 -749.883848 
L 109.8 -769.216564 
L 109.8 -788.54928 
L 109.8 -807.881996 
L 109.8 -827.214712 
L 109.8 -846.547428 
L 109.8 -865.880145 
L 109.8 -885.212861 
L 109.8 -904.545577 
L 109.8 -923.878293 
L 109.8 -943.211009 
L 109.8 -962.543726 
L 109.8 -981.876442 
L 109.8 -1001.209158 
L 109.8 -1020.541874 
L 109.8 -1039.87459 
L 109.8 -1059.207306 
L 109.8 -1078.540023 
L 109.8 -1097.872739 
L 109.8 -1117.205455 
L 109.8 -1136.538171 
L 109.8 -1155.870887 
L 109.8 -1175.203604 
L 109.8 -1194.53632 
L 109.8 -1213.869036 
L 109.8 -1233.201752 
L 109.8 -1252.534468 
L 109.8 -1271.867184 
L 109.8 -1291.199901 
L 109.8 -1310.532617 
L 109.8 -1329.865333 
L 109.8 -1349.198049 
L 109.8 -1368.530765 
L 109.8 -1387.863482 
L 109.8 -1407.196198 
L 109.8 -1426.528914 
L 109.8 -1445.86163 
L 109.8 -1465.194346 
L 109.8 -1484.527062 
L 109.8 -1503.859779 
L 109.8 -1523.192495 
L 109.8 -1542.525211 
L 109.8 -1561.857927 
L 109.8 -1581.190643 
L 109.8 -1600.523359 
L 109.8 -1619.856076 
L 109.8 -1639.188792 
L 109.8 -1658.521508 
L 109.800143 -1658.521508 
L 109.800143 -1658.521508 
L 109.800869 -1639.188792 
L 109.800005 -1619.856076 
L 109.8 -1600.523359 
L 109.8 -1581.190643 
L 109.8 -1561.857927 
L 109.8 -1542.525211 
L 109.8 -1523.192495 
L 109.8 -1503.859779 
L 109.8 -1484.527062 
L 109.8 -1465.194346 
L 109.8 -1445.86163 
L 109.8 -1426.528914 
L 109.8 -1407.196198 
L 109.8 -1387.863482 
L 109.8 -1368.530765 
L 109.8 -1349.198049 
L 109.8 -1329.865333 
L 109.8 -1310.532617 
L 109.800094 -1291.199901 
L 109.800967 -1271.867184 
L 109.80001 -1252.534468 
L 109.800088 -1233.201752 
L 109.80118 -1213.869036 
L 109.800775 -1194.53632 
L 109.800003 -1175.203604 
L 109.8 -1155.870887 
L 109.8 -1136.538171 
L 109.8 -1117.205455 
L 109.8 -1097.872739 
L 109.800005 -1078.540023 
L 109.801128 -1059.207306 
L 109.801811 -1039.87459 
L 109.800083 -1020.541874 
L 109.8 -1001.209158 
L 109.800018 -981.876442 
L 109.801725 -962.543726 
L 109.802258 -943.211009 
L 109.800043 -923.878293 
L 109.800003 -904.545577 
L 109.800774 -885.212861 
L 109.800197 -865.880145 
L 109.800618 -846.547428 
L 109.802963 -827.214712 
L 109.800434 -807.881996 
L 109.8 -788.54928 
L 109.800005 -769.216564 
L 109.800986 -749.883848 
L 109.80105 -730.551131 
L 109.801952 -711.218415 
L 109.802932 -691.885699 
L 109.804962 -672.552983 
L 109.800209 -653.220267 
L 109.801829 -633.887551 
L 109.801418 -614.554834 
L 109.801477 -595.222118 
L 109.801989 -575.889402 
L 109.802624 -556.556686 
L 109.803071 -537.22397 
L 109.802365 -517.891253 
L 109.80377 -498.558537 
L 109.806453 -479.225821 
L 109.807569 -459.893105 
L 109.802671 -440.560389 
L 109.803294 -421.227673 
L 109.803229 -401.894956 
L 109.808666 -382.56224 
L 109.812711 -363.229524 
L 109.811562 -343.896808 
L 109.806901 -324.564092 
L 109.810515 -305.231375 
L 109.811557 -285.898659 
L 109.811187 -266.565943 
L 109.816864 -247.233227 
L 109.818524 -227.900511 
L 109.812969 -208.567795 
L 109.824062 -189.235078 
L 109.829746 -169.902362 
L 109.831907 -150.569646 
L 109.838674 -131.23693 
L 109.839035 -111.904214 
L 109.850995 -92.571497 
L 109.877153 -73.238781 
L 109.8722 -53.906065 
L 109.900564 -34.573349 
L 109.917775 -15.240633 
L 109.940957 4.092083 
L 109.992678 23.4248 
L 110.059052 42.757516 
L 110.119613 62.090232 
L 110.255267 81.422948 
L 110.422995 100.755664 
L 110.716434 120.08838 
L 111.157415 139.421097 
L 111.95761 158.753813 
L 113.306205 178.086529 
L 116.434612 197.419245 
L 127.166034 216.751961 
L 124.487035 236.084678 
L 109.962055 255.417394 
z
" style="fill:#e1812c;stroke:#3f3f3f;stroke-width:2.25;"/>
   </g>
   <g id="PolyCollection_3">
    <defs>
     <path d="M 221.4 -44.677387 
L 219.654229 -44.677387 
L 213.292051 -47.20832 
L 199.04721 -49.739253 
L 183.015197 -52.270186 
L 176.76 -54.801119 
L 181.272119 -57.332052 
L 188.69445 -59.862985 
L 194.252647 -62.393918 
L 197.506803 -64.924851 
L 199.031454 -67.455784 
L 199.434909 -69.986717 
L 199.22198 -72.51765 
L 198.566044 -75.048583 
L 197.708155 -77.579516 
L 197.190736 -80.110449 
L 197.343853 -82.641382 
L 197.96294 -85.172315 
L 198.690312 -87.703248 
L 199.481258 -90.234181 
L 200.393917 -92.765114 
L 201.405553 -95.296047 
L 202.702888 -97.82698 
L 204.388784 -100.357913 
L 206.108375 -102.888846 
L 207.631815 -105.419779 
L 209.078093 -107.950712 
L 210.539372 -110.481646 
L 211.967366 -113.012579 
L 213.276004 -115.543512 
L 214.396809 -118.074445 
L 215.314027 -120.605378 
L 216.158738 -123.136311 
L 217.012173 -125.667244 
L 217.762758 -128.198177 
L 218.321585 -130.72911 
L 218.700418 -133.260043 
L 218.964381 -135.790976 
L 219.192383 -138.321909 
L 219.419257 -140.852842 
L 219.640851 -143.383775 
L 219.83513 -145.914708 
L 220.000371 -148.445641 
L 220.157591 -150.976574 
L 220.319185 -153.507507 
L 220.482171 -156.03844 
L 220.627177 -158.569373 
L 220.73989 -161.100306 
L 220.839657 -163.631239 
L 220.936243 -166.162172 
L 221.002195 -168.693105 
L 221.019483 -171.224038 
L 221.007848 -173.754971 
L 221.003754 -176.285904 
L 221.024439 -178.816837 
L 221.069014 -181.34777 
L 221.118221 -183.878703 
L 221.150191 -186.409636 
L 221.172741 -188.940569 
L 221.193378 -191.471502 
L 221.208944 -194.002435 
L 221.236732 -196.533368 
L 221.280902 -199.064301 
L 221.315304 -201.595234 
L 221.325557 -204.126167 
L 221.316081 -206.6571 
L 221.298417 -209.188033 
L 221.289607 -211.718966 
L 221.302257 -214.249899 
L 221.331022 -216.780832 
L 221.358227 -219.311765 
L 221.373164 -221.842698 
L 221.374818 -224.373631 
L 221.363521 -226.904564 
L 221.34806 -229.435497 
L 221.3444 -231.96643 
L 221.357306 -234.497363 
L 221.37405 -237.028296 
L 221.383613 -239.559229 
L 221.386151 -242.090162 
L 221.384853 -244.621095 
L 221.382543 -247.152028 
L 221.384109 -249.682961 
L 221.390832 -252.213894 
L 221.396946 -254.744828 
L 221.399369 -257.275761 
L 221.39942 -259.806694 
L 221.397661 -262.337627 
L 221.394279 -264.86856 
L 221.392342 -267.399493 
L 221.394396 -269.930426 
L 221.397759 -272.461359 
L 221.399508 -274.992292 
L 221.399895 -277.523225 
L 221.399513 -280.054158 
L 221.397244 -282.585091 
L 221.39141 -285.116024 
L 221.385356 -287.646957 
L 221.386347 -290.17789 
L 221.393038 -292.708823 
L 221.398058 -295.239756 
L 221.4 -295.239756 
L 221.4 -295.239756 
L 221.4 -292.708823 
L 221.4 -290.17789 
L 221.4 -287.646957 
L 221.4 -285.116024 
L 221.4 -282.585091 
L 221.4 -280.054158 
L 221.4 -277.523225 
L 221.4 -274.992292 
L 221.4 -272.461359 
L 221.4 -269.930426 
L 221.4 -267.399493 
L 221.4 -264.86856 
L 221.4 -262.337627 
L 221.4 -259.806694 
L 221.4 -257.275761 
L 221.4 -254.744828 
L 221.4 -252.213894 
L 221.4 -249.682961 
L 221.4 -247.152028 
L 221.4 -244.621095 
L 221.4 -242.090162 
L 221.4 -239.559229 
L 221.4 -237.028296 
L 221.4 -234.497363 
L 221.4 -231.96643 
L 221.4 -229.435497 
L 221.4 -226.904564 
L 221.4 -224.373631 
L 221.4 -221.842698 
L 221.4 -219.311765 
L 221.4 -216.780832 
L 221.4 -214.249899 
L 221.4 -211.718966 
L 221.4 -209.188033 
L 221.4 -206.6571 
L 221.4 -204.126167 
L 221.4 -201.595234 
L 221.4 -199.064301 
L 221.4 -196.533368 
L 221.4 -194.002435 
L 221.4 -191.471502 
L 221.4 -188.940569 
L 221.4 -186.409636 
L 221.4 -183.878703 
L 221.4 -181.34777 
L 221.4 -178.816837 
L 221.4 -176.285904 
L 221.4 -173.754971 
L 221.4 -171.224038 
L 221.4 -168.693105 
L 221.4 -166.162172 
L 221.4 -163.631239 
L 221.4 -161.100306 
L 221.4 -158.569373 
L 221.4 -156.03844 
L 221.4 -153.507507 
L 221.4 -150.976574 
L 221.4 -148.445641 
L 221.4 -145.914708 
L 221.4 -143.383775 
L 221.4 -140.852842 
L 221.4 -138.321909 
L 221.4 -135.790976 
L 221.4 -133.260043 
L 221.4 -130.72911 
L 221.4 -128.198177 
L 221.4 -125.667244 
L 221.4 -123.136311 
L 221.4 -120.605378 
L 221.4 -118.074445 
L 221.4 -115.543512 
L 221.4 -113.012579 
L 221.4 -110.481646 
L 221.4 -107.950712 
L 221.4 -105.419779 
L 221.4 -102.888846 
L 221.4 -100.357913 
L 221.4 -97.82698 
L 221.4 -95.296047 
L 221.4 -92.765114 
L 221.4 -90.234181 
L 221.4 -87.703248 
L 221.4 -85.172315 
L 221.4 -82.641382 
L 221.4 -80.110449 
L 221.4 -77.579516 
L 221.4 -75.048583 
L 221.4 -72.51765 
L 221.4 -69.986717 
L 221.4 -67.455784 
L 221.4 -64.924851 
L 221.4 -62.393918 
L 221.4 -59.862985 
L 221.4 -57.332052 
L 221.4 -54.801119 
L 221.4 -52.270186 
L 221.4 -49.739253 
L 221.4 -47.20832 
L 221.4 -44.677387 
z
" id="me63fe2ee3a" style="stroke:#3f3f3f;stroke-width:2.25;"/>
    </defs>
    <g clip-path="url(#p9989afa4a9)">
     <use style="fill:#3274a1;stroke:#3f3f3f;stroke-width:2.25;" x="0" xlink:href="#me63fe2ee3a" y="288"/>
    </g>
   </g>
   <g id="PolyCollection_4">
    <path clip-path="url(#p9989afa4a9)" d="M 222.213198 250.875077 
L 221.4 250.875077 
L 221.4 237.802142 
L 221.4 224.729206 
L 221.4 211.656271 
L 221.4 198.583335 
L 221.4 185.510399 
L 221.4 172.437464 
L 221.4 159.364528 
L 221.4 146.291593 
L 221.4 133.218657 
L 221.4 120.145722 
L 221.4 107.072786 
L 221.4 93.99985 
L 221.4 80.926915 
L 221.4 67.853979 
L 221.4 54.781044 
L 221.4 41.708108 
L 221.4 28.635172 
L 221.4 15.562237 
L 221.4 2.489301 
L 221.4 -10.583634 
L 221.4 -23.65657 
L 221.4 -36.729506 
L 221.4 -49.802441 
L 221.4 -62.875377 
L 221.4 -75.948312 
L 221.4 -89.021248 
L 221.4 -102.094183 
L 221.4 -115.167119 
L 221.4 -128.240055 
L 221.4 -141.31299 
L 221.4 -154.385926 
L 221.4 -167.458861 
L 221.4 -180.531797 
L 221.4 -193.604733 
L 221.4 -206.677668 
L 221.4 -219.750604 
L 221.4 -232.823539 
L 221.4 -245.896475 
L 221.4 -258.969411 
L 221.4 -272.042346 
L 221.4 -285.115282 
L 221.4 -298.188217 
L 221.4 -311.261153 
L 221.4 -324.334089 
L 221.4 -337.407024 
L 221.4 -350.47996 
L 221.4 -363.552895 
L 221.4 -376.625831 
L 221.4 -389.698766 
L 221.4 -402.771702 
L 221.4 -415.844638 
L 221.4 -428.917573 
L 221.4 -441.990509 
L 221.4 -455.063444 
L 221.4 -468.13638 
L 221.4 -481.209316 
L 221.4 -494.282251 
L 221.4 -507.355187 
L 221.4 -520.428122 
L 221.4 -533.501058 
L 221.4 -546.573994 
L 221.4 -559.646929 
L 221.4 -572.719865 
L 221.4 -585.7928 
L 221.4 -598.865736 
L 221.4 -611.938672 
L 221.4 -625.011607 
L 221.4 -638.084543 
L 221.4 -651.157478 
L 221.4 -664.230414 
L 221.4 -677.303349 
L 221.4 -690.376285 
L 221.4 -703.449221 
L 221.4 -716.522156 
L 221.4 -729.595092 
L 221.4 -742.668027 
L 221.4 -755.740963 
L 221.4 -768.813899 
L 221.4 -781.886834 
L 221.4 -794.95977 
L 221.4 -808.032705 
L 221.4 -821.105641 
L 221.4 -834.178577 
L 221.4 -847.251512 
L 221.4 -860.324448 
L 221.4 -873.397383 
L 221.4 -886.470319 
L 221.4 -899.543255 
L 221.4 -912.61619 
L 221.4 -925.689126 
L 221.4 -938.762061 
L 221.4 -951.834997 
L 221.4 -964.907932 
L 221.4 -977.980868 
L 221.4 -991.053804 
L 221.4 -1004.126739 
L 221.4 -1017.199675 
L 221.4 -1030.27261 
L 221.4 -1043.345546 
L 221.400437 -1043.345546 
L 221.400437 -1043.345546 
L 221.403075 -1030.27261 
L 221.401242 -1017.199675 
L 221.400029 -1004.126739 
L 221.4 -991.053804 
L 221.4 -977.980868 
L 221.4 -964.907932 
L 221.400042 -951.834997 
L 221.401463 -938.762061 
L 221.402936 -925.689126 
L 221.400338 -912.61619 
L 221.400002 -899.543255 
L 221.4 -886.470319 
L 221.4 -873.397383 
L 221.4 -860.324448 
L 221.4 -847.251512 
L 221.4 -834.178577 
L 221.4 -821.105641 
L 221.4 -808.032705 
L 221.4 -794.95977 
L 221.4 -781.886834 
L 221.4 -768.813899 
L 221.4 -755.740963 
L 221.4 -742.668027 
L 221.4 -729.595092 
L 221.4 -716.522156 
L 221.4 -703.449221 
L 221.4 -690.376285 
L 221.4 -677.303349 
L 221.4 -664.230414 
L 221.4 -651.157478 
L 221.4 -638.084543 
L 221.400141 -625.011607 
L 221.402324 -611.938672 
L 221.402188 -598.865736 
L 221.400119 -585.7928 
L 221.400124 -572.719865 
L 221.40222 -559.646929 
L 221.402293 -546.573994 
L 221.400136 -533.501058 
L 221.400066 -520.428122 
L 221.401765 -507.355187 
L 221.403124 -494.282251 
L 221.403334 -481.209316 
L 221.403577 -468.13638 
L 221.408379 -455.063444 
L 221.404525 -441.990509 
L 221.403384 -428.917573 
L 221.401963 -415.844638 
L 221.405844 -402.771702 
L 221.403641 -389.698766 
L 221.406083 -376.625831 
L 221.402445 -363.552895 
L 221.410107 -350.47996 
L 221.423912 -337.407024 
L 221.412622 -324.334089 
L 221.406149 -311.261153 
L 221.4088 -298.188217 
L 221.415216 -285.115282 
L 221.412144 -272.042346 
L 221.408211 -258.969411 
L 221.417539 -245.896475 
L 221.421651 -232.823539 
L 221.420932 -219.750604 
L 221.436541 -206.677668 
L 221.434819 -193.604733 
L 221.428034 -180.531797 
L 221.443849 -167.458861 
L 221.45066 -154.385926 
L 221.449058 -141.31299 
L 221.451848 -128.240055 
L 221.458514 -115.167119 
L 221.490332 -102.094183 
L 221.508902 -89.021248 
L 221.537332 -75.948312 
L 221.531636 -62.875377 
L 221.53927 -49.802441 
L 221.561239 -36.729506 
L 221.617264 -23.65657 
L 221.71314 -10.583634 
L 221.769447 2.489301 
L 221.85464 15.562237 
L 221.992951 28.635172 
L 222.115505 41.708108 
L 222.275129 54.781044 
L 222.577665 67.853979 
L 223.137393 80.926915 
L 223.796122 93.99985 
L 224.66963 107.072786 
L 225.808429 120.145722 
L 227.377829 133.218657 
L 229.093083 146.291593 
L 230.855653 159.364528 
L 232.464793 172.437464 
L 233.795769 185.510399 
L 233.925456 198.583335 
L 236.031195 211.656271 
L 244.976374 224.729206 
L 234.927052 237.802142 
L 222.213198 250.875077 
z
" style="fill:#e1812c;stroke:#3f3f3f;stroke-width:2.25;"/>
   </g>
   <g id="PolyCollection_5">
    <defs>
     <path d="M 333 -53.775886 
L 332.843377 -53.775886 
L 332.573381 -54.902146 
L 331.962261 -56.028407 
L 330.739998 -57.154667 
L 328.579426 -58.280928 
L 325.203104 -59.407188 
L 320.537536 -60.533449 
L 314.834852 -61.659709 
L 308.667155 -62.78597 
L 302.76209 -63.912231 
L 297.755108 -65.038491 
L 293.994803 -66.164752 
L 291.496556 -67.291012 
L 290.035478 -68.417273 
L 289.294157 -69.543533 
L 288.981627 -70.669794 
L 288.888116 -71.796054 
L 288.884416 -72.922315 
L 288.894799 -74.048576 
L 288.872958 -75.174836 
L 288.795884 -76.301097 
L 288.668876 -77.427357 
L 288.524381 -78.553618 
L 288.407808 -79.679878 
L 288.36 -80.806139 
L 288.408533 -81.932399 
L 288.569354 -83.05866 
L 288.851461 -84.18492 
L 289.256601 -85.311181 
L 289.770496 -86.437442 
L 290.351023 -87.563702 
L 290.928551 -88.689963 
L 291.43136 -89.816223 
L 291.828612 -90.942484 
L 292.161959 -92.068744 
L 292.538893 -93.195005 
L 293.087016 -94.321265 
L 293.894458 -95.447526 
L 294.967934 -96.573787 
L 296.228208 -97.700047 
L 297.545243 -98.826308 
L 298.79792 -99.952568 
L 299.929352 -101.078829 
L 300.968164 -102.205089 
L 302.005315 -103.33135 
L 303.143614 -104.45761 
L 304.449964 -105.583871 
L 305.930272 -106.710131 
L 307.529766 -107.836392 
L 309.153818 -108.962653 
L 310.702816 -110.088913 
L 312.107908 -111.215174 
L 313.348009 -112.341434 
L 314.437658 -113.467695 
L 315.398492 -114.593955 
L 316.241233 -115.720216 
L 316.973428 -116.846476 
L 317.622345 -117.972737 
L 318.248078 -119.098998 
L 318.930843 -120.225258 
L 319.737309 -121.351519 
L 320.685959 -122.477779 
L 321.732872 -123.60404 
L 322.788357 -124.7303 
L 323.757421 -125.856561 
L 324.581853 -126.982821 
L 325.259459 -128.109082 
L 325.831316 -129.235342 
L 326.35068 -130.361603 
L 326.857962 -131.487864 
L 327.375255 -132.614124 
L 327.913373 -133.740385 
L 328.475432 -134.866645 
L 329.050913 -135.992906 
L 329.609488 -137.119166 
L 330.107164 -138.245427 
L 330.50535 -139.371687 
L 330.789894 -140.497948 
L 330.976404 -141.624209 
L 331.099673 -142.750469 
L 331.196216 -143.87673 
L 331.290692 -145.00299 
L 331.391744 -146.129251 
L 331.496792 -147.255511 
L 331.60109 -148.381772 
L 331.704493 -149.508032 
L 331.811484 -150.634293 
L 331.925683 -151.760554 
L 332.044837 -152.886814 
L 332.161414 -154.013075 
L 332.268372 -155.139335 
L 332.364831 -156.265596 
L 332.456548 -157.391856 
L 332.550741 -158.518117 
L 332.649585 -159.644377 
L 332.747652 -160.770638 
L 332.835046 -161.896898 
L 332.903325 -163.023159 
L 332.949638 -164.14942 
L 332.976822 -165.27568 
L 333 -165.27568 
L 333 -165.27568 
L 333 -164.14942 
L 333 -163.023159 
L 333 -161.896898 
L 333 -160.770638 
L 333 -159.644377 
L 333 -158.518117 
L 333 -157.391856 
L 333 -156.265596 
L 333 -155.139335 
L 333 -154.013075 
L 333 -152.886814 
L 333 -151.760554 
L 333 -150.634293 
L 333 -149.508032 
L 333 -148.381772 
L 333 -147.255511 
L 333 -146.129251 
L 333 -145.00299 
L 333 -143.87673 
L 333 -142.750469 
L 333 -141.624209 
L 333 -140.497948 
L 333 -139.371687 
L 333 -138.245427 
L 333 -137.119166 
L 333 -135.992906 
L 333 -134.866645 
L 333 -133.740385 
L 333 -132.614124 
L 333 -131.487864 
L 333 -130.361603 
L 333 -129.235342 
L 333 -128.109082 
L 333 -126.982821 
L 333 -125.856561 
L 333 -124.7303 
L 333 -123.60404 
L 333 -122.477779 
L 333 -121.351519 
L 333 -120.225258 
L 333 -119.098998 
L 333 -117.972737 
L 333 -116.846476 
L 333 -115.720216 
L 333 -114.593955 
L 333 -113.467695 
L 333 -112.341434 
L 333 -111.215174 
L 333 -110.088913 
L 333 -108.962653 
L 333 -107.836392 
L 333 -106.710131 
L 333 -105.583871 
L 333 -104.45761 
L 333 -103.33135 
L 333 -102.205089 
L 333 -101.078829 
L 333 -99.952568 
L 333 -98.826308 
L 333 -97.700047 
L 333 -96.573787 
L 333 -95.447526 
L 333 -94.321265 
L 333 -93.195005 
L 333 -92.068744 
L 333 -90.942484 
L 333 -89.816223 
L 333 -88.689963 
L 333 -87.563702 
L 333 -86.437442 
L 333 -85.311181 
L 333 -84.18492 
L 333 -83.05866 
L 333 -81.932399 
L 333 -80.806139 
L 333 -79.679878 
L 333 -78.553618 
L 333 -77.427357 
L 333 -76.301097 
L 333 -75.174836 
L 333 -74.048576 
L 333 -72.922315 
L 333 -71.796054 
L 333 -70.669794 
L 333 -69.543533 
L 333 -68.417273 
L 333 -67.291012 
L 333 -66.164752 
L 333 -65.038491 
L 333 -63.912231 
L 333 -62.78597 
L 333 -61.659709 
L 333 -60.533449 
L 333 -59.407188 
L 333 -58.280928 
L 333 -57.154667 
L 333 -56.028407 
L 333 -54.902146 
L 333 -53.775886 
z
" id="m69a134b04c" style="stroke:#3f3f3f;stroke-width:2.25;"/>
    </defs>
    <g clip-path="url(#p9989afa4a9)">
     <use style="fill:#3274a1;stroke:#3f3f3f;stroke-width:2.25;" x="0" xlink:href="#m69a134b04c" y="288"/>
    </g>
   </g>
   <g id="PolyCollection_6">
    <path clip-path="url(#p9989afa4a9)" d="M 333.39613 232.274165 
L 333 232.274165 
L 333 227.653976 
L 333 223.033787 
L 333 218.413597 
L 333 213.793408 
L 333 209.173219 
L 333 204.55303 
L 333 199.932841 
L 333 195.312652 
L 333 190.692462 
L 333 186.072273 
L 333 181.452084 
L 333 176.831895 
L 333 172.211706 
L 333 167.591516 
L 333 162.971327 
L 333 158.351138 
L 333 153.730949 
L 333 149.11076 
L 333 144.49057 
L 333 139.870381 
L 333 135.250192 
L 333 130.630003 
L 333 126.009814 
L 333 121.389624 
L 333 116.769435 
L 333 112.149246 
L 333 107.529057 
L 333 102.908868 
L 333 98.288678 
L 333 93.668489 
L 333 89.0483 
L 333 84.428111 
L 333 79.807922 
L 333 75.187732 
L 333 70.567543 
L 333 65.947354 
L 333 61.327165 
L 333 56.706976 
L 333 52.086787 
L 333 47.466597 
L 333 42.846408 
L 333 38.226219 
L 333 33.60603 
L 333 28.985841 
L 333 24.365651 
L 333 19.745462 
L 333 15.125273 
L 333 10.505084 
L 333 5.884895 
L 333 1.264705 
L 333 -3.355484 
L 333 -7.975673 
L 333 -12.595862 
L 333 -17.216051 
L 333 -21.836241 
L 333 -26.45643 
L 333 -31.076619 
L 333 -35.696808 
L 333 -40.316997 
L 333 -44.937187 
L 333 -49.557376 
L 333 -54.177565 
L 333 -58.797754 
L 333 -63.417943 
L 333 -68.038132 
L 333 -72.658322 
L 333 -77.278511 
L 333 -81.8987 
L 333 -86.518889 
L 333 -91.139078 
L 333 -95.759268 
L 333 -100.379457 
L 333 -104.999646 
L 333 -109.619835 
L 333 -114.240024 
L 333 -118.860214 
L 333 -123.480403 
L 333 -128.100592 
L 333 -132.720781 
L 333 -137.34097 
L 333 -141.96116 
L 333 -146.581349 
L 333 -151.201538 
L 333 -155.821727 
L 333 -160.441916 
L 333 -165.062106 
L 333 -169.682295 
L 333 -174.302484 
L 333 -178.922673 
L 333 -183.542862 
L 333 -188.163052 
L 333 -192.783241 
L 333 -197.40343 
L 333 -202.023619 
L 333 -206.643808 
L 333 -211.263997 
L 333 -215.884187 
L 333 -220.504376 
L 333 -225.124565 
L 333.003067 -225.124565 
L 333.003067 -225.124565 
L 333.007766 -220.504376 
L 333.016436 -215.884187 
L 333.029188 -211.263997 
L 333.043762 -206.643808 
L 333.056003 -202.023619 
L 333.062328 -197.40343 
L 333.06225 -192.783241 
L 333.058618 -188.163052 
L 333.055773 -183.542862 
L 333.057778 -178.922673 
L 333.067665 -174.302484 
L 333.08676 -169.682295 
L 333.113738 -165.062106 
L 333.14451 -160.441916 
L 333.173477 -155.821727 
L 333.195175 -151.201538 
L 333.205782 -146.581349 
L 333.204822 -141.96116 
L 333.196088 -137.34097 
L 333.186079 -132.720781 
L 333.18096 -128.100592 
L 333.184695 -123.480403 
L 333.198457 -118.860214 
L 333.219829 -114.240024 
L 333.242691 -109.619835 
L 333.259778 -104.999646 
L 333.266756 -100.379457 
L 333.264677 -95.759268 
L 333.260309 -91.139078 
L 333.265568 -86.518889 
L 333.294689 -81.8987 
L 333.356468 -77.278511 
L 333.445076 -72.658322 
L 333.539728 -68.038132 
L 333.618189 -63.417943 
L 333.673899 -58.797754 
L 333.720332 -54.177565 
L 333.778641 -49.557376 
L 333.860828 -44.937187 
L 333.962407 -40.316997 
L 334.068122 -35.696808 
L 334.164719 -31.076619 
L 334.251821 -26.45643 
L 334.34356 -21.836241 
L 334.458977 -17.216051 
L 334.607618 -12.595862 
L 334.781781 -7.975673 
L 334.961719 -3.355484 
L 335.129343 1.264705 
L 335.280102 5.884895 
L 335.424807 10.505084 
L 335.580123 15.125273 
L 335.755504 19.745462 
L 335.948835 24.365651 
L 336.154611 28.985841 
L 336.374315 33.60603 
L 336.617078 38.226219 
L 336.891011 42.846408 
L 337.194753 47.466597 
L 337.517495 52.086787 
L 337.849016 56.706976 
L 338.190811 61.327165 
L 338.554605 65.947354 
L 338.947932 70.567543 
L 339.364629 75.187732 
L 339.793156 79.807922 
L 340.232301 84.428111 
L 340.694493 89.0483 
L 341.19306 93.668489 
L 341.729002 98.288678 
L 342.292645 102.908868 
L 342.876728 107.529057 
L 343.481824 112.149246 
L 344.103584 116.769435 
L 344.717003 121.389624 
L 345.282041 126.009814 
L 345.771701 130.630003 
L 346.195839 135.250192 
L 346.596899 139.870381 
L 347.021934 144.49057 
L 347.493982 149.11076 
L 348.000209 153.730949 
L 348.500686 158.351138 
L 348.953119 162.971327 
L 349.340545 167.591516 
L 349.682591 172.211706 
L 350.018838 176.831895 
L 350.371113 181.452084 
L 350.697894 186.072273 
L 350.848136 190.692462 
L 350.538034 195.312652 
L 349.415138 199.932841 
L 347.254972 204.55303 
L 344.193833 209.173219 
L 340.77434 213.793408 
L 337.692558 218.413597 
L 335.429309 223.033787 
L 334.068214 227.653976 
L 333.39613 232.274165 
z
" style="fill:#e1812c;stroke:#3f3f3f;stroke-width:2.25;"/>
   </g>
   <g id="patch_3">
    <path clip-path="url(#p9989afa4a9)" d="M 109.8 252 
L 109.8 252 
L 109.8 252 
L 109.8 252 
z
" style="fill:#3274a1;stroke:#3f3f3f;stroke-linejoin:miter;stroke-width:1.125;"/>
   </g>
   <g id="patch_4">
    <path clip-path="url(#p9989afa4a9)" d="M 109.8 252 
L 109.8 252 
L 109.8 252 
L 109.8 252 
z
" style="fill:#e1812c;stroke:#3f3f3f;stroke-linejoin:miter;stroke-width:1.125;"/>
   </g>
   <g id="line2d_6">
    <path clip-path="url(#p9989afa4a9)" d="M 65.6064 234.791177 
L 109.8 234.791177 
" style="fill:none;stroke:#3f3f3f;stroke-dasharray:7.59375,7.59375;stroke-dashoffset:0;stroke-width:2.25;"/>
   </g>
   <g id="line2d_7">
    <path clip-path="url(#p9989afa4a9)" d="M 78.077913 228.920297 
L 109.8 228.920297 
" style="fill:none;stroke:#3f3f3f;stroke-dasharray:15.1875,15.1875;stroke-dashoffset:0;stroke-width:2.25;"/>
   </g>
   <g id="line2d_8">
    <path clip-path="url(#p9989afa4a9)" d="M 99.674626 215.314766 
L 109.8 215.314766 
" style="fill:none;stroke:#3f3f3f;stroke-dasharray:7.59375,7.59375;stroke-dashoffset:0;stroke-width:2.25;"/>
   </g>
   <g id="line2d_9">
    <path clip-path="url(#p9989afa4a9)" d="M 109.8 228.236914 
L 124.340165 228.236914 
" style="fill:none;stroke:#3f3f3f;stroke-dasharray:7.59375,7.59375;stroke-dashoffset:0;stroke-width:2.25;"/>
   </g>
   <g id="line2d_10">
    <path clip-path="url(#p9989afa4a9)" d="M 109.8 218.73168 
L 126.992374 218.73168 
" style="fill:none;stroke:#3f3f3f;stroke-dasharray:15.1875,15.1875;stroke-dashoffset:0;stroke-width:2.25;"/>
   </g>
   <g id="line2d_11">
    <path clip-path="url(#p9989afa4a9)" d="M 109.8 194.59584 
L 116.368266 194.59584 
" style="fill:none;stroke:#3f3f3f;stroke-dasharray:7.59375,7.59375;stroke-dashoffset:0;stroke-width:2.25;"/>
   </g>
   <g id="line2d_12">
    <path clip-path="url(#p9989afa4a9)" d="M 189.021506 229.044549 
L 221.4 229.044549 
" style="fill:none;stroke:#3f3f3f;stroke-dasharray:7.59375,7.59375;stroke-dashoffset:0;stroke-width:2.25;"/>
   </g>
   <g id="line2d_13">
    <path clip-path="url(#p9989afa4a9)" d="M 197.945073 210.965966 
L 221.4 210.965966 
" style="fill:none;stroke:#3f3f3f;stroke-dasharray:15.1875,15.1875;stroke-dashoffset:0;stroke-width:2.25;"/>
   </g>
   <g id="line2d_14">
    <path clip-path="url(#p9989afa4a9)" d="M 201.605498 192.545691 
L 221.4 192.545691 
" style="fill:none;stroke:#3f3f3f;stroke-dasharray:7.59375,7.59375;stroke-dashoffset:0;stroke-width:2.25;"/>
   </g>
   <g id="line2d_15">
    <path clip-path="url(#p9989afa4a9)" d="M 221.4 223.29792 
L 244.74061 223.29792 
" style="fill:none;stroke:#3f3f3f;stroke-dasharray:7.59375,7.59375;stroke-dashoffset:0;stroke-width:2.25;"/>
   </g>
   <g id="line2d_16">
    <path clip-path="url(#p9989afa4a9)" d="M 221.4 192.359314 
L 233.800201 192.359314 
" style="fill:none;stroke:#3f3f3f;stroke-dasharray:15.1875,15.1875;stroke-dashoffset:0;stroke-width:2.25;"/>
   </g>
   <g id="line2d_17">
    <path clip-path="url(#p9989afa4a9)" d="M 221.4 154.462629 
L 230.761096 154.462629 
" style="fill:none;stroke:#3f3f3f;stroke-dasharray:7.59375,7.59375;stroke-dashoffset:0;stroke-width:2.25;"/>
   </g>
   <g id="line2d_18">
    <path clip-path="url(#p9989afa4a9)" d="M 289.314229 213.016114 
L 333 213.016114 
" style="fill:none;stroke:#3f3f3f;stroke-dasharray:7.59375,7.59375;stroke-dashoffset:0;stroke-width:2.25;"/>
   </g>
   <g id="line2d_19">
    <path clip-path="url(#p9989afa4a9)" d="M 290.777513 200.404594 
L 333 200.404594 
" style="fill:none;stroke:#3f3f3f;stroke-dasharray:15.1875,15.1875;stroke-dashoffset:0;stroke-width:2.25;"/>
   </g>
   <g id="line2d_20">
    <path clip-path="url(#p9989afa4a9)" d="M 301.288483 185.711863 
L 333 185.711863 
" style="fill:none;stroke:#3f3f3f;stroke-dasharray:7.59375,7.59375;stroke-dashoffset:0;stroke-width:2.25;"/>
   </g>
   <g id="line2d_21">
    <path clip-path="url(#p9989afa4a9)" d="M 333 181.580503 
L 350.197401 181.580503 
" style="fill:none;stroke:#3f3f3f;stroke-dasharray:7.59375,7.59375;stroke-dashoffset:0;stroke-width:2.25;"/>
   </g>
   <g id="line2d_22">
    <path clip-path="url(#p9989afa4a9)" d="M 333 146.277566 
L 346.881715 146.277566 
" style="fill:none;stroke:#3f3f3f;stroke-dasharray:15.1875,15.1875;stroke-dashoffset:0;stroke-width:2.25;"/>
   </g>
   <g id="line2d_23">
    <path clip-path="url(#p9989afa4a9)" d="M 333 98.797989 
L 341.641712 98.797989 
" style="fill:none;stroke:#3f3f3f;stroke-dasharray:7.59375,7.59375;stroke-dashoffset:0;stroke-width:2.25;"/>
   </g>
   <g id="patch_5">
    <path d="M 54 252 
L 54 34.56 
" style="fill:none;stroke:#333333;stroke-linecap:square;stroke-linejoin:miter;stroke-width:1.875;"/>
   </g>
   <g id="patch_6">
    <path d="M 388.8 252 
L 388.8 34.56 
" style="fill:none;stroke:#333333;stroke-linecap:square;stroke-linejoin:miter;stroke-width:1.875;"/>
   </g>
   <g id="patch_7">
    <path d="M 54 252 
L 388.8 252 
" style="fill:none;stroke:#333333;stroke-linecap:square;stroke-linejoin:miter;stroke-width:1.875;"/>
   </g>
   <g id="patch_8">
    <path d="M 54 34.56 
L 388.8 34.56 
" style="fill:none;stroke:#333333;stroke-linecap:square;stroke-linejoin:miter;stroke-width:1.875;"/>
   </g>
   <g id="legend_1">
    <g id="patch_9">
     <path d="M 65.55 122.369063 
L 178.639453 122.369063 
Q 181.939453 122.369063 181.939453 119.069063 
L 181.939453 46.11 
Q 181.939453 42.81 178.639453 42.81 
L 65.55 42.81 
Q 62.25 42.81 62.25 46.11 
L 62.25 119.069063 
Q 62.25 122.369063 65.55 122.369063 
z
" style="fill:#eaeaf2;opacity:0.8;stroke:#cccccc;stroke-linejoin:miter;stroke-width:1.5;"/>
    </g>
    <g id="text_11">
     <!-- count_type -->
     <g style="fill:#262626;" transform="translate(72.096914 63.087187)scale(0.18 -0.18)">
      <defs>
       <path d="M 50.984375 -16.609375 
L 50.984375 -23.578125 
L -0.984375 -23.578125 
L -0.984375 -16.609375 
z
" id="DejaVuSans-95"/>
      </defs>
      <use xlink:href="#DejaVuSans-99"/>
      <use x="54.980469" xlink:href="#DejaVuSans-111"/>
      <use x="116.162109" xlink:href="#DejaVuSans-117"/>
      <use x="179.541016" xlink:href="#DejaVuSans-110"/>
      <use x="242.919922" xlink:href="#DejaVuSans-116"/>
      <use x="282.128906" xlink:href="#DejaVuSans-95"/>
      <use x="332.128906" xlink:href="#DejaVuSans-116"/>
      <use x="371.337891" xlink:href="#DejaVuSans-121"/>
      <use x="430.517578" xlink:href="#DejaVuSans-112"/>
      <use x="493.994141" xlink:href="#DejaVuSans-101"/>
     </g>
    </g>
    <g id="patch_10">
     <path d="M 68.85 88.118672 
L 101.85 88.118672 
L 101.85 76.568672 
L 68.85 76.568672 
z
" style="fill:#3274a1;stroke:#3f3f3f;stroke-linejoin:miter;stroke-width:1.125;"/>
    </g>
    <g id="text_12">
     <!-- ngenes -->
     <g style="fill:#262626;" transform="translate(115.05 88.118672)scale(0.165 -0.165)">
      <defs>
       <path d="M 45.40625 27.984375 
Q 45.40625 37.75 41.375 43.109375 
Q 37.359375 48.484375 30.078125 48.484375 
Q 22.859375 48.484375 18.828125 43.109375 
Q 14.796875 37.75 14.796875 27.984375 
Q 14.796875 18.265625 18.828125 12.890625 
Q 22.859375 7.515625 30.078125 7.515625 
Q 37.359375 7.515625 41.375 12.890625 
Q 45.40625 18.265625 45.40625 27.984375 
z
M 54.390625 6.78125 
Q 54.390625 -7.171875 48.1875 -13.984375 
Q 42 -20.796875 29.203125 -20.796875 
Q 24.46875 -20.796875 20.265625 -20.09375 
Q 16.0625 -19.390625 12.109375 -17.921875 
L 12.109375 -9.1875 
Q 16.0625 -11.328125 19.921875 -12.34375 
Q 23.78125 -13.375 27.78125 -13.375 
Q 36.625 -13.375 41.015625 -8.765625 
Q 45.40625 -4.15625 45.40625 5.171875 
L 45.40625 9.625 
Q 42.625 4.78125 38.28125 2.390625 
Q 33.9375 0 27.875 0 
Q 17.828125 0 11.671875 7.65625 
Q 5.515625 15.328125 5.515625 27.984375 
Q 5.515625 40.671875 11.671875 48.328125 
Q 17.828125 56 27.875 56 
Q 33.9375 56 38.28125 53.609375 
Q 42.625 51.21875 45.40625 46.390625 
L 45.40625 54.6875 
L 54.390625 54.6875 
z
" id="DejaVuSans-103"/>
      </defs>
      <use xlink:href="#DejaVuSans-110"/>
      <use x="63.378906" xlink:href="#DejaVuSans-103"/>
      <use x="126.855469" xlink:href="#DejaVuSans-101"/>
      <use x="188.378906" xlink:href="#DejaVuSans-110"/>
      <use x="251.757812" xlink:href="#DejaVuSans-101"/>
      <use x="313.28125" xlink:href="#DejaVuSans-115"/>
     </g>
    </g>
    <g id="patch_11">
     <path d="M 68.85 112.337578 
L 101.85 112.337578 
L 101.85 100.787578 
L 68.85 100.787578 
z
" style="fill:#e1812c;stroke:#3f3f3f;stroke-linejoin:miter;stroke-width:1.125;"/>
    </g>
    <g id="text_13">
     <!-- numis -->
     <g style="fill:#262626;" transform="translate(115.05 112.337578)scale(0.165 -0.165)">
      <use xlink:href="#DejaVuSans-110"/>
      <use x="63.378906" xlink:href="#DejaVuSans-117"/>
      <use x="126.757812" xlink:href="#DejaVuSans-109"/>
      <use x="224.169922" xlink:href="#DejaVuSans-105"/>
      <use x="251.953125" xlink:href="#DejaVuSans-115"/>
     </g>
    </g>
   </g>
  </g>
 </g>
 <defs>
  <clipPath id="p9989afa4a9">
   <rect height="217.44" width="334.8" x="54" y="34.56"/>
  </clipPath>
 </defs>
</svg>
