<?xml version="1.0" encoding="utf-8" standalone="no"?>
<!DOCTYPE svg PUBLIC "-//W3C//DTD SVG 1.1//EN"
  "http://www.w3.org/Graphics/SVG/1.1/DTD/svg11.dtd">
<!-- Created with matplotlib (https://matplotlib.org/) -->
<svg height="288pt" version="1.1" viewBox="0 0 432 288" width="432pt" xmlns="http://www.w3.org/2000/svg" xmlns:xlink="http://www.w3.org/1999/xlink">
 <metadata>
  <rdf:RDF xmlns:cc="http://creativecommons.org/ns#" xmlns:dc="http://purl.org/dc/elements/1.1/" xmlns:rdf="http://www.w3.org/1999/02/22-rdf-syntax-ns#">
   <cc:Work>
    <dc:type rdf:resource="http://purl.org/dc/dcmitype/StillImage"/>
    <dc:date>2022-02-04T17:11:42.947573</dc:date>
    <dc:format>image/svg+xml</dc:format>
    <dc:creator>
     <cc:Agent>
      <dc:title>Matplotlib v3.3.0, https://matplotlib.org/</dc:title>
     </cc:Agent>
    </dc:creator>
   </cc:Work>
  </rdf:RDF>
 </metadata>
 <defs>
  <style type="text/css">*{stroke-linecap:butt;stroke-linejoin:round;}</style>
 </defs>
 <g id="figure_1">
  <g id="patch_1">
   <path d="M 0 288 
L 432 288 
L 432 0 
L 0 0 
z
" style="fill:#ffffff;"/>
  </g>
  <g id="axes_1">
   <g id="patch_2">
    <path d="M 54 252 
L 388.8 252 
L 388.8 34.56 
L 54 34.56 
z
" style="fill:#eaeaf2;"/>
   </g>
   <g id="matplotlib.axis_1">
    <g id="xtick_1">
     <g id="text_1">
      <!-- dropseq -->
      <g style="fill:#262626;" transform="translate(76.459688 277.037422)scale(0.165 -0.165)">
       <defs>
        <path d="M 45.40625 46.390625 
L 45.40625 75.984375 
L 54.390625 75.984375 
L 54.390625 0 
L 45.40625 0 
L 45.40625 8.203125 
Q 42.578125 3.328125 38.25 0.953125 
Q 33.9375 -1.421875 27.875 -1.421875 
Q 17.96875 -1.421875 11.734375 6.484375 
Q 5.515625 14.40625 5.515625 27.296875 
Q 5.515625 40.1875 11.734375 48.09375 
Q 17.96875 56 27.875 56 
Q 33.9375 56 38.25 53.625 
Q 42.578125 51.265625 45.40625 46.390625 
z
M 14.796875 27.296875 
Q 14.796875 17.390625 18.875 11.75 
Q 22.953125 6.109375 30.078125 6.109375 
Q 37.203125 6.109375 41.296875 11.75 
Q 45.40625 17.390625 45.40625 27.296875 
Q 45.40625 37.203125 41.296875 42.84375 
Q 37.203125 48.484375 30.078125 48.484375 
Q 22.953125 48.484375 18.875 42.84375 
Q 14.796875 37.203125 14.796875 27.296875 
z
" id="DejaVuSans-100"/>
        <path d="M 41.109375 46.296875 
Q 39.59375 47.171875 37.8125 47.578125 
Q 36.03125 48 33.890625 48 
Q 26.265625 48 22.1875 43.046875 
Q 18.109375 38.09375 18.109375 28.8125 
L 18.109375 0 
L 9.078125 0 
L 9.078125 54.6875 
L 18.109375 54.6875 
L 18.109375 46.1875 
Q 20.953125 51.171875 25.484375 53.578125 
Q 30.03125 56 36.53125 56 
Q 37.453125 56 38.578125 55.875 
Q 39.703125 55.765625 41.0625 55.515625 
z
" id="DejaVuSans-114"/>
        <path d="M 30.609375 48.390625 
Q 23.390625 48.390625 19.1875 42.75 
Q 14.984375 37.109375 14.984375 27.296875 
Q 14.984375 17.484375 19.15625 11.84375 
Q 23.34375 6.203125 30.609375 6.203125 
Q 37.796875 6.203125 41.984375 11.859375 
Q 46.1875 17.53125 46.1875 27.296875 
Q 46.1875 37.015625 41.984375 42.703125 
Q 37.796875 48.390625 30.609375 48.390625 
z
M 30.609375 56 
Q 42.328125 56 49.015625 48.375 
Q 55.71875 40.765625 55.71875 27.296875 
Q 55.71875 13.875 49.015625 6.21875 
Q 42.328125 -1.421875 30.609375 -1.421875 
Q 18.84375 -1.421875 12.171875 6.21875 
Q 5.515625 13.875 5.515625 27.296875 
Q 5.515625 40.765625 12.171875 48.375 
Q 18.84375 56 30.609375 56 
z
" id="DejaVuSans-111"/>
        <path d="M 18.109375 8.203125 
L 18.109375 -20.796875 
L 9.078125 -20.796875 
L 9.078125 54.6875 
L 18.109375 54.6875 
L 18.109375 46.390625 
Q 20.953125 51.265625 25.265625 53.625 
Q 29.59375 56 35.59375 56 
Q 45.5625 56 51.78125 48.09375 
Q 58.015625 40.1875 58.015625 27.296875 
Q 58.015625 14.40625 51.78125 6.484375 
Q 45.5625 -1.421875 35.59375 -1.421875 
Q 29.59375 -1.421875 25.265625 0.953125 
Q 20.953125 3.328125 18.109375 8.203125 
z
M 48.6875 27.296875 
Q 48.6875 37.203125 44.609375 42.84375 
Q 40.53125 48.484375 33.40625 48.484375 
Q 26.265625 48.484375 22.1875 42.84375 
Q 18.109375 37.203125 18.109375 27.296875 
Q 18.109375 17.390625 22.1875 11.75 
Q 26.265625 6.109375 33.40625 6.109375 
Q 40.53125 6.109375 44.609375 11.75 
Q 48.6875 17.390625 48.6875 27.296875 
z
" id="DejaVuSans-112"/>
        <path d="M 44.28125 53.078125 
L 44.28125 44.578125 
Q 40.484375 46.53125 36.375 47.5 
Q 32.28125 48.484375 27.875 48.484375 
Q 21.1875 48.484375 17.84375 46.4375 
Q 14.5 44.390625 14.5 40.28125 
Q 14.5 37.15625 16.890625 35.375 
Q 19.28125 33.59375 26.515625 31.984375 
L 29.59375 31.296875 
Q 39.15625 29.25 43.1875 25.515625 
Q 47.21875 21.78125 47.21875 15.09375 
Q 47.21875 7.46875 41.1875 3.015625 
Q 35.15625 -1.421875 24.609375 -1.421875 
Q 20.21875 -1.421875 15.453125 -0.5625 
Q 10.6875 0.296875 5.421875 2 
L 5.421875 11.28125 
Q 10.40625 8.6875 15.234375 7.390625 
Q 20.0625 6.109375 24.8125 6.109375 
Q 31.15625 6.109375 34.5625 8.28125 
Q 37.984375 10.453125 37.984375 14.40625 
Q 37.984375 18.0625 35.515625 20.015625 
Q 33.0625 21.96875 24.703125 23.78125 
L 21.578125 24.515625 
Q 13.234375 26.265625 9.515625 29.90625 
Q 5.8125 33.546875 5.8125 39.890625 
Q 5.8125 47.609375 11.28125 51.796875 
Q 16.75 56 26.8125 56 
Q 31.78125 56 36.171875 55.265625 
Q 40.578125 54.546875 44.28125 53.078125 
z
" id="DejaVuSans-115"/>
        <path d="M 56.203125 29.59375 
L 56.203125 25.203125 
L 14.890625 25.203125 
Q 15.484375 15.921875 20.484375 11.0625 
Q 25.484375 6.203125 34.421875 6.203125 
Q 39.59375 6.203125 44.453125 7.46875 
Q 49.3125 8.734375 54.109375 11.28125 
L 54.109375 2.78125 
Q 49.265625 0.734375 44.1875 -0.34375 
Q 39.109375 -1.421875 33.890625 -1.421875 
Q 20.796875 -1.421875 13.15625 6.1875 
Q 5.515625 13.8125 5.515625 26.8125 
Q 5.515625 40.234375 12.765625 48.109375 
Q 20.015625 56 32.328125 56 
Q 43.359375 56 49.78125 48.890625 
Q 56.203125 41.796875 56.203125 29.59375 
z
M 47.21875 32.234375 
Q 47.125 39.59375 43.09375 43.984375 
Q 39.0625 48.390625 32.421875 48.390625 
Q 24.90625 48.390625 20.390625 44.140625 
Q 15.875 39.890625 15.1875 32.171875 
z
" id="DejaVuSans-101"/>
        <path d="M 14.796875 27.296875 
Q 14.796875 17.390625 18.875 11.75 
Q 22.953125 6.109375 30.078125 6.109375 
Q 37.203125 6.109375 41.296875 11.75 
Q 45.40625 17.390625 45.40625 27.296875 
Q 45.40625 37.203125 41.296875 42.84375 
Q 37.203125 48.484375 30.078125 48.484375 
Q 22.953125 48.484375 18.875 42.84375 
Q 14.796875 37.203125 14.796875 27.296875 
z
M 45.40625 8.203125 
Q 42.578125 3.328125 38.25 0.953125 
Q 33.9375 -1.421875 27.875 -1.421875 
Q 17.96875 -1.421875 11.734375 6.484375 
Q 5.515625 14.40625 5.515625 27.296875 
Q 5.515625 40.1875 11.734375 48.09375 
Q 17.96875 56 27.875 56 
Q 33.9375 56 38.25 53.625 
Q 42.578125 51.265625 45.40625 46.390625 
L 45.40625 54.6875 
L 54.390625 54.6875 
L 54.390625 -20.796875 
L 45.40625 -20.796875 
z
" id="DejaVuSans-113"/>
       </defs>
       <use xlink:href="#DejaVuSans-100"/>
       <use x="63.476562" xlink:href="#DejaVuSans-114"/>
       <use x="102.339844" xlink:href="#DejaVuSans-111"/>
       <use x="163.521484" xlink:href="#DejaVuSans-112"/>
       <use x="226.998047" xlink:href="#DejaVuSans-115"/>
       <use x="279.097656" xlink:href="#DejaVuSans-101"/>
       <use x="340.621094" xlink:href="#DejaVuSans-113"/>
      </g>
     </g>
    </g>
    <g id="xtick_2">
     <g id="text_2">
      <!-- indrop -->
      <g style="fill:#262626;" transform="translate(195.15082 277.037422)scale(0.165 -0.165)">
       <defs>
        <path d="M 9.421875 54.6875 
L 18.40625 54.6875 
L 18.40625 0 
L 9.421875 0 
z
M 9.421875 75.984375 
L 18.40625 75.984375 
L 18.40625 64.59375 
L 9.421875 64.59375 
z
" id="DejaVuSans-105"/>
        <path d="M 54.890625 33.015625 
L 54.890625 0 
L 45.90625 0 
L 45.90625 32.71875 
Q 45.90625 40.484375 42.875 44.328125 
Q 39.84375 48.1875 33.796875 48.1875 
Q 26.515625 48.1875 22.3125 43.546875 
Q 18.109375 38.921875 18.109375 30.90625 
L 18.109375 0 
L 9.078125 0 
L 9.078125 54.6875 
L 18.109375 54.6875 
L 18.109375 46.1875 
Q 21.34375 51.125 25.703125 53.5625 
Q 30.078125 56 35.796875 56 
Q 45.21875 56 50.046875 50.171875 
Q 54.890625 44.34375 54.890625 33.015625 
z
" id="DejaVuSans-110"/>
       </defs>
       <use xlink:href="#DejaVuSans-105"/>
       <use x="27.783203" xlink:href="#DejaVuSans-110"/>
       <use x="91.162109" xlink:href="#DejaVuSans-100"/>
       <use x="154.638672" xlink:href="#DejaVuSans-114"/>
       <use x="193.501953" xlink:href="#DejaVuSans-111"/>
       <use x="254.683594" xlink:href="#DejaVuSans-112"/>
      </g>
     </g>
    </g>
    <g id="xtick_3">
     <g id="text_3">
      <!-- hydrop -->
      <g style="fill:#262626;" transform="translate(304.159805 277.037422)scale(0.165 -0.165)">
       <defs>
        <path d="M 54.890625 33.015625 
L 54.890625 0 
L 45.90625 0 
L 45.90625 32.71875 
Q 45.90625 40.484375 42.875 44.328125 
Q 39.84375 48.1875 33.796875 48.1875 
Q 26.515625 48.1875 22.3125 43.546875 
Q 18.109375 38.921875 18.109375 30.90625 
L 18.109375 0 
L 9.078125 0 
L 9.078125 75.984375 
L 18.109375 75.984375 
L 18.109375 46.1875 
Q 21.34375 51.125 25.703125 53.5625 
Q 30.078125 56 35.796875 56 
Q 45.21875 56 50.046875 50.171875 
Q 54.890625 44.34375 54.890625 33.015625 
z
" id="DejaVuSans-104"/>
        <path d="M 32.171875 -5.078125 
Q 28.375 -14.84375 24.75 -17.8125 
Q 21.140625 -20.796875 15.09375 -20.796875 
L 7.90625 -20.796875 
L 7.90625 -13.28125 
L 13.1875 -13.28125 
Q 16.890625 -13.28125 18.9375 -11.515625 
Q 21 -9.765625 23.484375 -3.21875 
L 25.09375 0.875 
L 2.984375 54.6875 
L 12.5 54.6875 
L 29.59375 11.921875 
L 46.6875 54.6875 
L 56.203125 54.6875 
z
" id="DejaVuSans-121"/>
       </defs>
       <use xlink:href="#DejaVuSans-104"/>
       <use x="63.378906" xlink:href="#DejaVuSans-121"/>
       <use x="122.558594" xlink:href="#DejaVuSans-100"/>
       <use x="186.035156" xlink:href="#DejaVuSans-114"/>
       <use x="224.898438" xlink:href="#DejaVuSans-111"/>
       <use x="286.080078" xlink:href="#DejaVuSans-112"/>
      </g>
     </g>
    </g>
    <g id="text_4">
     <!-- method -->
     <g style="fill:#262626;" transform="translate(186.643125 298.146094)scale(0.18 -0.18)">
      <defs>
       <path d="M 52 44.1875 
Q 55.375 50.25 60.0625 53.125 
Q 64.75 56 71.09375 56 
Q 79.640625 56 84.28125 50.015625 
Q 88.921875 44.046875 88.921875 33.015625 
L 88.921875 0 
L 79.890625 0 
L 79.890625 32.71875 
Q 79.890625 40.578125 77.09375 44.375 
Q 74.3125 48.1875 68.609375 48.1875 
Q 61.625 48.1875 57.5625 43.546875 
Q 53.515625 38.921875 53.515625 30.90625 
L 53.515625 0 
L 44.484375 0 
L 44.484375 32.71875 
Q 44.484375 40.625 41.703125 44.40625 
Q 38.921875 48.1875 33.109375 48.1875 
Q 26.21875 48.1875 22.15625 43.53125 
Q 18.109375 38.875 18.109375 30.90625 
L 18.109375 0 
L 9.078125 0 
L 9.078125 54.6875 
L 18.109375 54.6875 
L 18.109375 46.1875 
Q 21.1875 51.21875 25.484375 53.609375 
Q 29.78125 56 35.6875 56 
Q 41.65625 56 45.828125 52.96875 
Q 50 49.953125 52 44.1875 
z
" id="DejaVuSans-109"/>
       <path d="M 18.3125 70.21875 
L 18.3125 54.6875 
L 36.8125 54.6875 
L 36.8125 47.703125 
L 18.3125 47.703125 
L 18.3125 18.015625 
Q 18.3125 11.328125 20.140625 9.421875 
Q 21.96875 7.515625 27.59375 7.515625 
L 36.8125 7.515625 
L 36.8125 0 
L 27.59375 0 
Q 17.1875 0 13.234375 3.875 
Q 9.28125 7.765625 9.28125 18.015625 
L 9.28125 47.703125 
L 2.6875 47.703125 
L 2.6875 54.6875 
L 9.28125 54.6875 
L 9.28125 70.21875 
z
" id="DejaVuSans-116"/>
      </defs>
      <use xlink:href="#DejaVuSans-109"/>
      <use x="97.412109" xlink:href="#DejaVuSans-101"/>
      <use x="158.935547" xlink:href="#DejaVuSans-116"/>
      <use x="198.144531" xlink:href="#DejaVuSans-104"/>
      <use x="261.523438" xlink:href="#DejaVuSans-111"/>
      <use x="322.705078" xlink:href="#DejaVuSans-100"/>
     </g>
    </g>
   </g>
   <g id="matplotlib.axis_2">
    <g id="ytick_1">
     <g id="line2d_1">
      <path clip-path="url(#p85254ebc65)" d="M 54 252 
L 388.8 252 
" style="fill:none;stroke:#ffffff;stroke-linecap:round;stroke-width:1.5;"/>
     </g>
     <g id="text_5">
      <!-- 0 -->
      <g style="fill:#262626;" transform="translate(31.001875 258.268711)scale(0.165 -0.165)">
       <defs>
        <path d="M 31.78125 66.40625 
Q 24.171875 66.40625 20.328125 58.90625 
Q 16.5 51.421875 16.5 36.375 
Q 16.5 21.390625 20.328125 13.890625 
Q 24.171875 6.390625 31.78125 6.390625 
Q 39.453125 6.390625 43.28125 13.890625 
Q 47.125 21.390625 47.125 36.375 
Q 47.125 51.421875 43.28125 58.90625 
Q 39.453125 66.40625 31.78125 66.40625 
z
M 31.78125 74.21875 
Q 44.046875 74.21875 50.515625 64.515625 
Q 56.984375 54.828125 56.984375 36.375 
Q 56.984375 17.96875 50.515625 8.265625 
Q 44.046875 -1.421875 31.78125 -1.421875 
Q 19.53125 -1.421875 13.0625 8.265625 
Q 6.59375 17.96875 6.59375 36.375 
Q 6.59375 54.828125 13.0625 64.515625 
Q 19.53125 74.21875 31.78125 74.21875 
z
" id="DejaVuSans-48"/>
       </defs>
       <use xlink:href="#DejaVuSans-48"/>
      </g>
     </g>
    </g>
    <g id="ytick_2">
     <g id="line2d_2">
      <path clip-path="url(#p85254ebc65)" d="M 54 205.405714 
L 388.8 205.405714 
" style="fill:none;stroke:#ffffff;stroke-linecap:round;stroke-width:1.5;"/>
     </g>
     <g id="text_6">
      <!-- 1500 -->
      <g style="fill:#262626;" transform="translate(-0.4925 211.674425)scale(0.165 -0.165)">
       <defs>
        <path d="M 12.40625 8.296875 
L 28.515625 8.296875 
L 28.515625 63.921875 
L 10.984375 60.40625 
L 10.984375 69.390625 
L 28.421875 72.90625 
L 38.28125 72.90625 
L 38.28125 8.296875 
L 54.390625 8.296875 
L 54.390625 0 
L 12.40625 0 
z
" id="DejaVuSans-49"/>
        <path d="M 10.796875 72.90625 
L 49.515625 72.90625 
L 49.515625 64.59375 
L 19.828125 64.59375 
L 19.828125 46.734375 
Q 21.96875 47.46875 24.109375 47.828125 
Q 26.265625 48.1875 28.421875 48.1875 
Q 40.625 48.1875 47.75 41.5 
Q 54.890625 34.8125 54.890625 23.390625 
Q 54.890625 11.625 47.5625 5.09375 
Q 40.234375 -1.421875 26.90625 -1.421875 
Q 22.3125 -1.421875 17.546875 -0.640625 
Q 12.796875 0.140625 7.71875 1.703125 
L 7.71875 11.625 
Q 12.109375 9.234375 16.796875 8.0625 
Q 21.484375 6.890625 26.703125 6.890625 
Q 35.15625 6.890625 40.078125 11.328125 
Q 45.015625 15.765625 45.015625 23.390625 
Q 45.015625 31 40.078125 35.4375 
Q 35.15625 39.890625 26.703125 39.890625 
Q 22.75 39.890625 18.8125 39.015625 
Q 14.890625 38.140625 10.796875 36.28125 
z
" id="DejaVuSans-53"/>
       </defs>
       <use xlink:href="#DejaVuSans-49"/>
       <use x="63.623047" xlink:href="#DejaVuSans-53"/>
       <use x="127.246094" xlink:href="#DejaVuSans-48"/>
       <use x="190.869141" xlink:href="#DejaVuSans-48"/>
      </g>
     </g>
    </g>
    <g id="ytick_3">
     <g id="line2d_3">
      <path clip-path="url(#p85254ebc65)" d="M 54 158.811429 
L 388.8 158.811429 
" style="fill:none;stroke:#ffffff;stroke-linecap:round;stroke-width:1.5;"/>
     </g>
     <g id="text_7">
      <!-- 3000 -->
      <g style="fill:#262626;" transform="translate(-0.4925 165.08014)scale(0.165 -0.165)">
       <defs>
        <path d="M 40.578125 39.3125 
Q 47.65625 37.796875 51.625 33 
Q 55.609375 28.21875 55.609375 21.1875 
Q 55.609375 10.40625 48.1875 4.484375 
Q 40.765625 -1.421875 27.09375 -1.421875 
Q 22.515625 -1.421875 17.65625 -0.515625 
Q 12.796875 0.390625 7.625 2.203125 
L 7.625 11.71875 
Q 11.71875 9.328125 16.59375 8.109375 
Q 21.484375 6.890625 26.8125 6.890625 
Q 36.078125 6.890625 40.9375 10.546875 
Q 45.796875 14.203125 45.796875 21.1875 
Q 45.796875 27.640625 41.28125 31.265625 
Q 36.765625 34.90625 28.71875 34.90625 
L 20.21875 34.90625 
L 20.21875 43.015625 
L 29.109375 43.015625 
Q 36.375 43.015625 40.234375 45.921875 
Q 44.09375 48.828125 44.09375 54.296875 
Q 44.09375 59.90625 40.109375 62.90625 
Q 36.140625 65.921875 28.71875 65.921875 
Q 24.65625 65.921875 20.015625 65.03125 
Q 15.375 64.15625 9.8125 62.3125 
L 9.8125 71.09375 
Q 15.4375 72.65625 20.34375 73.4375 
Q 25.25 74.21875 29.59375 74.21875 
Q 40.828125 74.21875 47.359375 69.109375 
Q 53.90625 64.015625 53.90625 55.328125 
Q 53.90625 49.265625 50.4375 45.09375 
Q 46.96875 40.921875 40.578125 39.3125 
z
" id="DejaVuSans-51"/>
       </defs>
       <use xlink:href="#DejaVuSans-51"/>
       <use x="63.623047" xlink:href="#DejaVuSans-48"/>
       <use x="127.246094" xlink:href="#DejaVuSans-48"/>
       <use x="190.869141" xlink:href="#DejaVuSans-48"/>
      </g>
     </g>
    </g>
    <g id="ytick_4">
     <g id="line2d_4">
      <path clip-path="url(#p85254ebc65)" d="M 54 112.217143 
L 388.8 112.217143 
" style="fill:none;stroke:#ffffff;stroke-linecap:round;stroke-width:1.5;"/>
     </g>
     <g id="text_8">
      <!-- 4500 -->
      <g style="fill:#262626;" transform="translate(-0.4925 118.485854)scale(0.165 -0.165)">
       <defs>
        <path d="M 37.796875 64.3125 
L 12.890625 25.390625 
L 37.796875 25.390625 
z
M 35.203125 72.90625 
L 47.609375 72.90625 
L 47.609375 25.390625 
L 58.015625 25.390625 
L 58.015625 17.1875 
L 47.609375 17.1875 
L 47.609375 0 
L 37.796875 0 
L 37.796875 17.1875 
L 4.890625 17.1875 
L 4.890625 26.703125 
z
" id="DejaVuSans-52"/>
       </defs>
       <use xlink:href="#DejaVuSans-52"/>
       <use x="63.623047" xlink:href="#DejaVuSans-53"/>
       <use x="127.246094" xlink:href="#DejaVuSans-48"/>
       <use x="190.869141" xlink:href="#DejaVuSans-48"/>
      </g>
     </g>
    </g>
    <g id="ytick_5">
     <g id="line2d_5">
      <path clip-path="url(#p85254ebc65)" d="M 54 65.622857 
L 388.8 65.622857 
" style="fill:none;stroke:#ffffff;stroke-linecap:round;stroke-width:1.5;"/>
     </g>
     <g id="text_9">
      <!-- 6000 -->
      <g style="fill:#262626;" transform="translate(-0.4925 71.891568)scale(0.165 -0.165)">
       <defs>
        <path d="M 33.015625 40.375 
Q 26.375 40.375 22.484375 35.828125 
Q 18.609375 31.296875 18.609375 23.390625 
Q 18.609375 15.53125 22.484375 10.953125 
Q 26.375 6.390625 33.015625 6.390625 
Q 39.65625 6.390625 43.53125 10.953125 
Q 47.40625 15.53125 47.40625 23.390625 
Q 47.40625 31.296875 43.53125 35.828125 
Q 39.65625 40.375 33.015625 40.375 
z
M 52.59375 71.296875 
L 52.59375 62.3125 
Q 48.875 64.0625 45.09375 64.984375 
Q 41.3125 65.921875 37.59375 65.921875 
Q 27.828125 65.921875 22.671875 59.328125 
Q 17.53125 52.734375 16.796875 39.40625 
Q 19.671875 43.65625 24.015625 45.921875 
Q 28.375 48.1875 33.59375 48.1875 
Q 44.578125 48.1875 50.953125 41.515625 
Q 57.328125 34.859375 57.328125 23.390625 
Q 57.328125 12.15625 50.6875 5.359375 
Q 44.046875 -1.421875 33.015625 -1.421875 
Q 20.359375 -1.421875 13.671875 8.265625 
Q 6.984375 17.96875 6.984375 36.375 
Q 6.984375 53.65625 15.1875 63.9375 
Q 23.390625 74.21875 37.203125 74.21875 
Q 40.921875 74.21875 44.703125 73.484375 
Q 48.484375 72.75 52.59375 71.296875 
z
" id="DejaVuSans-54"/>
       </defs>
       <use xlink:href="#DejaVuSans-54"/>
       <use x="63.623047" xlink:href="#DejaVuSans-48"/>
       <use x="127.246094" xlink:href="#DejaVuSans-48"/>
       <use x="190.869141" xlink:href="#DejaVuSans-48"/>
      </g>
     </g>
    </g>
    <g id="text_10">
     <!-- counts -->
     <g style="fill:#262626;" transform="translate(-8.235938 173.359688)rotate(-90)scale(0.18 -0.18)">
      <defs>
       <path d="M 48.78125 52.59375 
L 48.78125 44.1875 
Q 44.96875 46.296875 41.140625 47.34375 
Q 37.3125 48.390625 33.40625 48.390625 
Q 24.65625 48.390625 19.8125 42.84375 
Q 14.984375 37.3125 14.984375 27.296875 
Q 14.984375 17.28125 19.8125 11.734375 
Q 24.65625 6.203125 33.40625 6.203125 
Q 37.3125 6.203125 41.140625 7.25 
Q 44.96875 8.296875 48.78125 10.40625 
L 48.78125 2.09375 
Q 45.015625 0.34375 40.984375 -0.53125 
Q 36.96875 -1.421875 32.421875 -1.421875 
Q 20.0625 -1.421875 12.78125 6.34375 
Q 5.515625 14.109375 5.515625 27.296875 
Q 5.515625 40.671875 12.859375 48.328125 
Q 20.21875 56 33.015625 56 
Q 37.15625 56 41.109375 55.140625 
Q 45.0625 54.296875 48.78125 52.59375 
z
" id="DejaVuSans-99"/>
       <path d="M 8.5 21.578125 
L 8.5 54.6875 
L 17.484375 54.6875 
L 17.484375 21.921875 
Q 17.484375 14.15625 20.5 10.265625 
Q 23.53125 6.390625 29.59375 6.390625 
Q 36.859375 6.390625 41.078125 11.03125 
Q 45.3125 15.671875 45.3125 23.6875 
L 45.3125 54.6875 
L 54.296875 54.6875 
L 54.296875 0 
L 45.3125 0 
L 45.3125 8.40625 
Q 42.046875 3.421875 37.71875 1 
Q 33.40625 -1.421875 27.6875 -1.421875 
Q 18.265625 -1.421875 13.375 4.4375 
Q 8.5 10.296875 8.5 21.578125 
z
M 31.109375 56 
z
" id="DejaVuSans-117"/>
      </defs>
      <use xlink:href="#DejaVuSans-99"/>
      <use x="54.980469" xlink:href="#DejaVuSans-111"/>
      <use x="116.162109" xlink:href="#DejaVuSans-117"/>
      <use x="179.541016" xlink:href="#DejaVuSans-110"/>
      <use x="242.919922" xlink:href="#DejaVuSans-116"/>
      <use x="282.128906" xlink:href="#DejaVuSans-115"/>
     </g>
    </g>
   </g>
   <g id="PolyCollection_1">
    <defs>
     <path d="M 109.8 -40.929165 
L 109.529835 -40.929165 
L 108.002907 -43.119766 
L 102.600578 -45.310366 
L 91.259307 -47.500967 
L 76.928346 -49.691568 
L 66.832567 -51.882168 
L 65.16 -54.072769 
L 69.818966 -56.26337 
L 76.586328 -58.45397 
L 82.865706 -60.644571 
L 87.943661 -62.835172 
L 91.850501 -65.025772 
L 94.767184 -67.216373 
L 96.836869 -69.406974 
L 98.291239 -71.597574 
L 99.539793 -73.788175 
L 100.738916 -75.978775 
L 101.796836 -78.169376 
L 102.642253 -80.359977 
L 103.278435 -82.550577 
L 103.813459 -84.741178 
L 104.312315 -86.931779 
L 104.786997 -89.122379 
L 105.283888 -91.31298 
L 105.772222 -93.503581 
L 106.16383 -95.694181 
L 106.468763 -97.884782 
L 106.738914 -100.075383 
L 107.028949 -102.265983 
L 107.33105 -104.456584 
L 107.561414 -106.647185 
L 107.72099 -108.837785 
L 107.889325 -111.028386 
L 108.086816 -113.218986 
L 108.255876 -115.409587 
L 108.375829 -117.600188 
L 108.476915 -119.790788 
L 108.565804 -121.981389 
L 108.657566 -124.17199 
L 108.778863 -126.36259 
L 108.89957 -128.553191 
L 108.9675 -130.743792 
L 108.983145 -132.934392 
L 108.994279 -135.124993 
L 109.034767 -137.315594 
L 109.095955 -139.506194 
L 109.165892 -141.696795 
L 109.240105 -143.887396 
L 109.303861 -146.077996 
L 109.343608 -148.268597 
L 109.359109 -150.459197 
L 109.360772 -152.649798 
L 109.369102 -154.840399 
L 109.405201 -157.030999 
L 109.459729 -159.2216 
L 109.500075 -161.412201 
L 109.517775 -163.602801 
L 109.53181 -165.793402 
L 109.556159 -167.984003 
L 109.584113 -170.174603 
L 109.606736 -172.365204 
L 109.617796 -174.555805 
L 109.61929 -176.746405 
L 109.621943 -178.937006 
L 109.620623 -181.127607 
L 109.618178 -183.318207 
L 109.632483 -185.508808 
L 109.657337 -187.699408 
L 109.67048 -189.890009 
L 109.675233 -192.08061 
L 109.688308 -194.27121 
L 109.70575 -196.461811 
L 109.716827 -198.652412 
L 109.726451 -200.843012 
L 109.73786 -203.033613 
L 109.741234 -205.224214 
L 109.735954 -207.414814 
L 109.730573 -209.605415 
L 109.731121 -211.796016 
L 109.737521 -213.986616 
L 109.742973 -216.177217 
L 109.745534 -218.367818 
L 109.748274 -220.558418 
L 109.753085 -222.749019 
L 109.75916 -224.939619 
L 109.762342 -227.13022 
L 109.760579 -229.320821 
L 109.761237 -231.511421 
L 109.769303 -233.702022 
L 109.777753 -235.892623 
L 109.779127 -238.083223 
L 109.775536 -240.273824 
L 109.774423 -242.464425 
L 109.779447 -244.655025 
L 109.786618 -246.845626 
L 109.789008 -249.036227 
L 109.788264 -251.226827 
L 109.791077 -253.417428 
L 109.796182 -255.608029 
L 109.799126 -257.798629 
L 109.8 -257.798629 
L 109.8 -257.798629 
L 109.8 -255.608029 
L 109.8 -253.417428 
L 109.8 -251.226827 
L 109.8 -249.036227 
L 109.8 -246.845626 
L 109.8 -244.655025 
L 109.8 -242.464425 
L 109.8 -240.273824 
L 109.8 -238.083223 
L 109.8 -235.892623 
L 109.8 -233.702022 
L 109.8 -231.511421 
L 109.8 -229.320821 
L 109.8 -227.13022 
L 109.8 -224.939619 
L 109.8 -222.749019 
L 109.8 -220.558418 
L 109.8 -218.367818 
L 109.8 -216.177217 
L 109.8 -213.986616 
L 109.8 -211.796016 
L 109.8 -209.605415 
L 109.8 -207.414814 
L 109.8 -205.224214 
L 109.8 -203.033613 
L 109.8 -200.843012 
L 109.8 -198.652412 
L 109.8 -196.461811 
L 109.8 -194.27121 
L 109.8 -192.08061 
L 109.8 -189.890009 
L 109.8 -187.699408 
L 109.8 -185.508808 
L 109.8 -183.318207 
L 109.8 -181.127607 
L 109.8 -178.937006 
L 109.8 -176.746405 
L 109.8 -174.555805 
L 109.8 -172.365204 
L 109.8 -170.174603 
L 109.8 -167.984003 
L 109.8 -165.793402 
L 109.8 -163.602801 
L 109.8 -161.412201 
L 109.8 -159.2216 
L 109.8 -157.030999 
L 109.8 -154.840399 
L 109.8 -152.649798 
L 109.8 -150.459197 
L 109.8 -148.268597 
L 109.8 -146.077996 
L 109.8 -143.887396 
L 109.8 -141.696795 
L 109.8 -139.506194 
L 109.8 -137.315594 
L 109.8 -135.124993 
L 109.8 -132.934392 
L 109.8 -130.743792 
L 109.8 -128.553191 
L 109.8 -126.36259 
L 109.8 -124.17199 
L 109.8 -121.981389 
L 109.8 -119.790788 
L 109.8 -117.600188 
L 109.8 -115.409587 
L 109.8 -113.218986 
L 109.8 -111.028386 
L 109.8 -108.837785 
L 109.8 -106.647185 
L 109.8 -104.456584 
L 109.8 -102.265983 
L 109.8 -100.075383 
L 109.8 -97.884782 
L 109.8 -95.694181 
L 109.8 -93.503581 
L 109.8 -91.31298 
L 109.8 -89.122379 
L 109.8 -86.931779 
L 109.8 -84.741178 
L 109.8 -82.550577 
L 109.8 -80.359977 
L 109.8 -78.169376 
L 109.8 -75.978775 
L 109.8 -73.788175 
L 109.8 -71.597574 
L 109.8 -69.406974 
L 109.8 -67.216373 
L 109.8 -65.025772 
L 109.8 -62.835172 
L 109.8 -60.644571 
L 109.8 -58.45397 
L 109.8 -56.26337 
L 109.8 -54.072769 
L 109.8 -51.882168 
L 109.8 -49.691568 
L 109.8 -47.500967 
L 109.8 -45.310366 
L 109.8 -43.119766 
L 109.8 -40.929165 
z
" id="md36f1c5b8d" style="stroke:#3f3f3f;stroke-width:2.25;"/>
    </defs>
    <g clip-path="url(#p85254ebc65)">
     <use style="fill:#3274a1;stroke:#3f3f3f;stroke-width:2.25;" x="0" xlink:href="#md36f1c5b8d" y="288"/>
    </g>
   </g>
   <g id="PolyCollection_2">
    <defs>
     <path d="M 109.867432 -39.145286 
L 109.8 -39.145286 
L 109.8 -41.392006 
L 109.8 -43.638726 
L 109.8 -45.885445 
L 109.8 -48.132165 
L 109.8 -50.378885 
L 109.8 -52.625604 
L 109.8 -54.872324 
L 109.8 -57.119043 
L 109.8 -59.365763 
L 109.8 -61.612483 
L 109.8 -63.859202 
L 109.8 -66.105922 
L 109.8 -68.352642 
L 109.8 -70.599361 
L 109.8 -72.846081 
L 109.8 -75.092801 
L 109.8 -77.33952 
L 109.8 -79.58624 
L 109.8 -81.83296 
L 109.8 -84.079679 
L 109.8 -86.326399 
L 109.8 -88.573118 
L 109.8 -90.819838 
L 109.8 -93.066558 
L 109.8 -95.313277 
L 109.8 -97.559997 
L 109.8 -99.806717 
L 109.8 -102.053436 
L 109.8 -104.300156 
L 109.8 -106.546876 
L 109.8 -108.793595 
L 109.8 -111.040315 
L 109.8 -113.287035 
L 109.8 -115.533754 
L 109.8 -117.780474 
L 109.8 -120.027193 
L 109.8 -122.273913 
L 109.8 -124.520633 
L 109.8 -126.767352 
L 109.8 -129.014072 
L 109.8 -131.260792 
L 109.8 -133.507511 
L 109.8 -135.754231 
L 109.8 -138.000951 
L 109.8 -140.24767 
L 109.8 -142.49439 
L 109.8 -144.741109 
L 109.8 -146.987829 
L 109.8 -149.234549 
L 109.8 -151.481268 
L 109.8 -153.727988 
L 109.8 -155.974708 
L 109.8 -158.221427 
L 109.8 -160.468147 
L 109.8 -162.714867 
L 109.8 -164.961586 
L 109.8 -167.208306 
L 109.8 -169.455026 
L 109.8 -171.701745 
L 109.8 -173.948465 
L 109.8 -176.195184 
L 109.8 -178.441904 
L 109.8 -180.688624 
L 109.8 -182.935343 
L 109.8 -185.182063 
L 109.8 -187.428783 
L 109.8 -189.675502 
L 109.8 -191.922222 
L 109.8 -194.168942 
L 109.8 -196.415661 
L 109.8 -198.662381 
L 109.8 -200.9091 
L 109.8 -203.15582 
L 109.8 -205.40254 
L 109.8 -207.649259 
L 109.8 -209.895979 
L 109.8 -212.142699 
L 109.8 -214.389418 
L 109.8 -216.636138 
L 109.8 -218.882858 
L 109.8 -221.129577 
L 109.8 -223.376297 
L 109.8 -225.623017 
L 109.8 -227.869736 
L 109.8 -230.116456 
L 109.8 -232.363175 
L 109.8 -234.609895 
L 109.8 -236.856615 
L 109.8 -239.103334 
L 109.8 -241.350054 
L 109.8 -243.596774 
L 109.8 -245.843493 
L 109.8 -248.090213 
L 109.8 -250.336933 
L 109.8 -252.583652 
L 109.8 -254.830372 
L 109.8 -257.077091 
L 109.8 -259.323811 
L 109.8 -261.570531 
L 109.806715 -261.570531 
L 109.806715 -261.570531 
L 109.820983 -259.323811 
L 109.850811 -257.077091 
L 109.89737 -254.830372 
L 109.952009 -252.583652 
L 110.000677 -250.336933 
L 110.0341 -248.090213 
L 110.053014 -245.843493 
L 110.064608 -243.596774 
L 110.074504 -241.350054 
L 110.081993 -239.103334 
L 110.084274 -236.856615 
L 110.083986 -234.609895 
L 110.088206 -232.363175 
L 110.100065 -230.116456 
L 110.115395 -227.869736 
L 110.128417 -225.623017 
L 110.137969 -223.376297 
L 110.147135 -221.129577 
L 110.159014 -218.882858 
L 110.174223 -216.636138 
L 110.191484 -214.389418 
L 110.209443 -212.142699 
L 110.227965 -209.895979 
L 110.24871 -207.649259 
L 110.273977 -205.40254 
L 110.302821 -203.15582 
L 110.328769 -200.9091 
L 110.344941 -198.662381 
L 110.352828 -196.415661 
L 110.362332 -194.168942 
L 110.380593 -191.922222 
L 110.404924 -189.675502 
L 110.428911 -187.428783 
L 110.450033 -185.182063 
L 110.470605 -182.935343 
L 110.496723 -180.688624 
L 110.534849 -178.441904 
L 110.584491 -176.195184 
L 110.636052 -173.948465 
L 110.679332 -171.701745 
L 110.713235 -169.455026 
L 110.745666 -167.208306 
L 110.783844 -164.961586 
L 110.825298 -162.714867 
L 110.861348 -160.468147 
L 110.891309 -158.221427 
L 110.928119 -155.974708 
L 110.985246 -153.727988 
L 111.06201 -151.481268 
L 111.14636 -149.234549 
L 111.229163 -146.987829 
L 111.311249 -144.741109 
L 111.397813 -142.49439 
L 111.490129 -140.24767 
L 111.584315 -138.000951 
L 111.67753 -135.754231 
L 111.771922 -133.507511 
L 111.87056 -131.260792 
L 111.975167 -129.014072 
L 112.090043 -126.767352 
L 112.222064 -124.520633 
L 112.375821 -122.273913 
L 112.549098 -120.027193 
L 112.727282 -117.780474 
L 112.888444 -115.533754 
L 113.029151 -113.287035 
L 113.177865 -111.040315 
L 113.367221 -108.793595 
L 113.603573 -106.546876 
L 113.875964 -104.300156 
L 114.180796 -102.053436 
L 114.523385 -99.806717 
L 114.903476 -97.559997 
L 115.314065 -95.313277 
L 115.755007 -93.066558 
L 116.237892 -90.819838 
L 116.778923 -88.573118 
L 117.400094 -86.326399 
L 118.140812 -84.079679 
L 119.057013 -81.83296 
L 120.19712 -79.58624 
L 121.581684 -77.33952 
L 123.218088 -75.092801 
L 125.13923 -72.846081 
L 127.422931 -70.599361 
L 130.138664 -68.352642 
L 133.199211 -66.105922 
L 136.201419 -63.859202 
L 138.398831 -61.612483 
L 138.887851 -59.365763 
L 136.996462 -57.119043 
L 132.713944 -54.872324 
L 126.85883 -52.625604 
L 120.792376 -50.378885 
L 115.798187 -48.132165 
L 112.51176 -45.885445 
L 110.795665 -43.638726 
L 110.091926 -41.392006 
L 109.867432 -39.145286 
z
" id="m7c33c934c9" style="stroke:#3f3f3f;stroke-width:2.25;"/>
    </defs>
    <g clip-path="url(#p85254ebc65)">
     <use style="fill:#e1812c;stroke:#3f3f3f;stroke-width:2.25;" x="0" xlink:href="#m7c33c934c9" y="288"/>
    </g>
   </g>
   <g id="PolyCollection_3">
    <defs>
     <path d="M 221.4 -44.700117 
L 219.643339 -44.700117 
L 214.735525 -46.832422 
L 204.054887 -48.964726 
L 189.639204 -51.097031 
L 178.785888 -53.229335 
L 176.76 -55.36164 
L 181.505152 -57.493944 
L 187.871708 -59.626249 
L 192.946104 -61.758553 
L 196.289185 -63.890858 
L 198.223597 -66.023162 
L 199.107946 -68.155467 
L 199.313773 -70.287771 
L 199.115403 -72.420075 
L 198.596682 -74.55238 
L 197.868761 -76.684684 
L 197.239851 -78.816989 
L 197.025154 -80.949293 
L 197.291251 -83.081598 
L 197.840998 -85.213902 
L 198.456184 -87.346207 
L 199.105219 -89.478511 
L 199.842921 -91.610816 
L 200.651214 -93.74312 
L 201.552273 -95.875425 
L 202.704209 -98.007729 
L 204.137875 -100.140034 
L 205.618907 -102.272338 
L 206.959135 -104.404643 
L 208.195808 -106.536947 
L 209.423627 -108.669251 
L 210.663143 -110.801556 
L 211.87115 -112.93386 
L 212.995023 -115.066165 
L 213.993231 -117.198469 
L 214.836205 -119.330774 
L 215.566928 -121.463078 
L 216.285324 -123.595383 
L 217.007689 -125.727687 
L 217.652857 -127.859992 
L 218.162011 -129.992296 
L 218.534264 -132.124601 
L 218.798978 -134.256905 
L 219.005885 -136.38921 
L 219.197719 -138.521514 
L 219.390019 -140.653818 
L 219.58001 -142.786123 
L 219.75378 -144.918427 
L 219.903365 -147.050732 
L 220.038458 -149.183036 
L 220.171891 -151.315341 
L 220.309112 -153.447645 
L 220.447923 -155.57995 
L 220.577136 -157.712254 
L 220.68357 -159.844559 
L 220.770935 -161.976863 
L 220.855584 -164.109168 
L 220.936517 -166.241472 
L 220.994536 -168.373777 
L 221.017125 -170.506081 
L 221.011885 -172.638385 
L 221.001379 -174.77069 
L 221.003942 -176.902994 
L 221.025199 -179.035299 
L 221.06339 -181.167603 
L 221.106544 -183.299908 
L 221.138585 -185.432212 
L 221.159267 -187.564517 
L 221.17817 -189.696821 
L 221.194612 -191.829126 
L 221.207492 -193.96143 
L 221.229184 -196.093735 
L 221.265165 -198.226039 
L 221.300807 -200.358344 
L 221.321392 -202.490648 
L 221.324646 -204.622953 
L 221.315021 -206.755257 
L 221.299806 -208.887561 
L 221.28942 -211.019866 
L 221.293284 -213.15217 
L 221.312442 -215.284475 
L 221.338367 -217.416779 
L 221.360049 -219.549084 
L 221.372525 -221.681388 
L 221.375577 -223.813693 
L 221.368928 -225.945997 
L 221.355625 -228.078302 
L 221.344653 -230.210606 
L 221.345028 -232.342911 
L 221.356888 -234.475215 
L 221.371509 -236.60752 
L 221.381387 -238.739824 
L 221.385529 -240.872128 
L 221.385934 -243.004433 
L 221.384252 -245.136737 
L 221.382363 -247.269042 
L 221.383491 -249.401346 
L 221.388736 -251.533651 
L 221.394763 -253.665955 
L 221.398383 -255.79826 
L 221.4 -255.79826 
L 221.4 -255.79826 
L 221.4 -253.665955 
L 221.4 -251.533651 
L 221.4 -249.401346 
L 221.4 -247.269042 
L 221.4 -245.136737 
L 221.4 -243.004433 
L 221.4 -240.872128 
L 221.4 -238.739824 
L 221.4 -236.60752 
L 221.4 -234.475215 
L 221.4 -232.342911 
L 221.4 -230.210606 
L 221.4 -228.078302 
L 221.4 -225.945997 
L 221.4 -223.813693 
L 221.4 -221.681388 
L 221.4 -219.549084 
L 221.4 -217.416779 
L 221.4 -215.284475 
L 221.4 -213.15217 
L 221.4 -211.019866 
L 221.4 -208.887561 
L 221.4 -206.755257 
L 221.4 -204.622953 
L 221.4 -202.490648 
L 221.4 -200.358344 
L 221.4 -198.226039 
L 221.4 -196.093735 
L 221.4 -193.96143 
L 221.4 -191.829126 
L 221.4 -189.696821 
L 221.4 -187.564517 
L 221.4 -185.432212 
L 221.4 -183.299908 
L 221.4 -181.167603 
L 221.4 -179.035299 
L 221.4 -176.902994 
L 221.4 -174.77069 
L 221.4 -172.638385 
L 221.4 -170.506081 
L 221.4 -168.373777 
L 221.4 -166.241472 
L 221.4 -164.109168 
L 221.4 -161.976863 
L 221.4 -159.844559 
L 221.4 -157.712254 
L 221.4 -155.57995 
L 221.4 -153.447645 
L 221.4 -151.315341 
L 221.4 -149.183036 
L 221.4 -147.050732 
L 221.4 -144.918427 
L 221.4 -142.786123 
L 221.4 -140.653818 
L 221.4 -138.521514 
L 221.4 -136.38921 
L 221.4 -134.256905 
L 221.4 -132.124601 
L 221.4 -129.992296 
L 221.4 -127.859992 
L 221.4 -125.727687 
L 221.4 -123.595383 
L 221.4 -121.463078 
L 221.4 -119.330774 
L 221.4 -117.198469 
L 221.4 -115.066165 
L 221.4 -112.93386 
L 221.4 -110.801556 
L 221.4 -108.669251 
L 221.4 -106.536947 
L 221.4 -104.404643 
L 221.4 -102.272338 
L 221.4 -100.140034 
L 221.4 -98.007729 
L 221.4 -95.875425 
L 221.4 -93.74312 
L 221.4 -91.610816 
L 221.4 -89.478511 
L 221.4 -87.346207 
L 221.4 -85.213902 
L 221.4 -83.081598 
L 221.4 -80.949293 
L 221.4 -78.816989 
L 221.4 -76.684684 
L 221.4 -74.55238 
L 221.4 -72.420075 
L 221.4 -70.287771 
L 221.4 -68.155467 
L 221.4 -66.023162 
L 221.4 -63.890858 
L 221.4 -61.758553 
L 221.4 -59.626249 
L 221.4 -57.493944 
L 221.4 -55.36164 
L 221.4 -53.229335 
L 221.4 -51.097031 
L 221.4 -48.964726 
L 221.4 -46.832422 
L 221.4 -44.700117 
z
" id="m18e7f90e19" style="stroke:#3f3f3f;stroke-width:2.25;"/>
    </defs>
    <g clip-path="url(#p85254ebc65)">
     <use style="fill:#3274a1;stroke:#3f3f3f;stroke-width:2.25;" x="0" xlink:href="#m18e7f90e19" y="288"/>
    </g>
   </g>
   <g id="PolyCollection_4">
    <defs>
     <path d="M 222.194026 -41.128789 
L 221.4 -41.128789 
L 221.4 -43.388778 
L 221.4 -45.648767 
L 221.4 -47.908756 
L 221.4 -50.168745 
L 221.4 -52.428735 
L 221.4 -54.688724 
L 221.4 -56.948713 
L 221.4 -59.208702 
L 221.4 -61.468691 
L 221.4 -63.72868 
L 221.4 -65.988669 
L 221.4 -68.248659 
L 221.4 -70.508648 
L 221.4 -72.768637 
L 221.4 -75.028626 
L 221.4 -77.288615 
L 221.4 -79.548604 
L 221.4 -81.808593 
L 221.4 -84.068583 
L 221.4 -86.328572 
L 221.4 -88.588561 
L 221.4 -90.84855 
L 221.4 -93.108539 
L 221.4 -95.368528 
L 221.4 -97.628517 
L 221.4 -99.888507 
L 221.4 -102.148496 
L 221.4 -104.408485 
L 221.4 -106.668474 
L 221.4 -108.928463 
L 221.4 -111.188452 
L 221.4 -113.448441 
L 221.4 -115.708431 
L 221.4 -117.96842 
L 221.4 -120.228409 
L 221.4 -122.488398 
L 221.4 -124.748387 
L 221.4 -127.008376 
L 221.4 -129.268365 
L 221.4 -131.528355 
L 221.4 -133.788344 
L 221.4 -136.048333 
L 221.4 -138.308322 
L 221.4 -140.568311 
L 221.4 -142.8283 
L 221.4 -145.088289 
L 221.4 -147.348279 
L 221.4 -149.608268 
L 221.4 -151.868257 
L 221.4 -154.128246 
L 221.4 -156.388235 
L 221.4 -158.648224 
L 221.4 -160.908213 
L 221.4 -163.168203 
L 221.4 -165.428192 
L 221.4 -167.688181 
L 221.4 -169.94817 
L 221.4 -172.208159 
L 221.4 -174.468148 
L 221.4 -176.728137 
L 221.4 -178.988127 
L 221.4 -181.248116 
L 221.4 -183.508105 
L 221.4 -185.768094 
L 221.4 -188.028083 
L 221.4 -190.288072 
L 221.4 -192.548061 
L 221.4 -194.808051 
L 221.4 -197.06804 
L 221.4 -199.328029 
L 221.4 -201.588018 
L 221.4 -203.848007 
L 221.4 -206.107996 
L 221.4 -208.367985 
L 221.4 -210.627975 
L 221.4 -212.887964 
L 221.4 -215.147953 
L 221.4 -217.407942 
L 221.4 -219.667931 
L 221.4 -221.92792 
L 221.4 -224.187909 
L 221.4 -226.447899 
L 221.4 -228.707888 
L 221.4 -230.967877 
L 221.4 -233.227866 
L 221.4 -235.487855 
L 221.4 -237.747844 
L 221.4 -240.007833 
L 221.4 -242.267823 
L 221.4 -244.527812 
L 221.4 -246.787801 
L 221.4 -249.04779 
L 221.4 -251.307779 
L 221.4 -253.567768 
L 221.4 -255.827757 
L 221.4 -258.087747 
L 221.4 -260.347736 
L 221.4 -262.607725 
L 221.4 -264.867714 
L 221.415154 -264.867714 
L 221.415154 -264.867714 
L 221.436376 -262.607725 
L 221.476431 -260.347736 
L 221.541432 -258.087747 
L 221.632329 -255.827757 
L 221.742277 -253.567768 
L 221.857956 -251.307779 
L 221.964664 -249.04779 
L 222.051999 -246.787801 
L 222.116852 -244.527812 
L 222.162915 -242.267823 
L 222.197823 -240.007833 
L 222.229315 -237.747844 
L 222.26195 -235.487855 
L 222.296195 -233.227866 
L 222.330674 -230.967877 
L 222.365811 -228.707888 
L 222.40564 -226.447899 
L 222.456114 -224.187909 
L 222.521513 -221.92792 
L 222.602169 -219.667931 
L 222.695282 -217.407942 
L 222.797515 -215.147953 
L 222.906483 -212.887964 
L 223.019784 -210.627975 
L 223.133389 -208.367985 
L 223.242629 -206.107996 
L 223.346098 -203.848007 
L 223.44837 -201.588018 
L 223.557317 -199.328029 
L 223.677626 -197.06804 
L 223.807282 -194.808051 
L 223.941242 -192.548061 
L 224.078387 -190.288072 
L 224.223802 -188.028083 
L 224.383474 -185.768094 
L 224.557247 -183.508105 
L 224.738011 -181.248116 
L 224.918082 -178.988127 
L 225.095924 -176.728137 
L 225.276911 -174.468148 
L 225.4691 -172.208159 
L 225.67925 -169.94817 
L 225.911591 -167.688181 
L 226.167748 -165.428192 
L 226.446137 -163.168203 
L 226.741496 -160.908213 
L 227.046078 -158.648224 
L 227.352523 -156.388235 
L 227.656337 -154.128246 
L 227.956147 -151.868257 
L 228.252506 -149.608268 
L 228.547631 -147.348279 
L 228.846198 -145.088289 
L 229.154496 -142.8283 
L 229.476769 -140.568311 
L 229.811582 -138.308322 
L 230.151453 -136.048333 
L 230.485543 -133.788344 
L 230.803584 -131.528355 
L 231.10046 -129.268365 
L 231.379979 -127.008376 
L 231.653732 -124.748387 
L 231.93331 -122.488398 
L 232.221748 -120.228409 
L 232.512805 -117.96842 
L 232.79921 -115.708431 
L 233.081144 -113.448441 
L 233.365606 -111.188452 
L 233.656292 -108.928463 
L 233.942783 -106.668474 
L 234.198618 -104.408485 
L 234.390588 -102.148496 
L 234.493538 -99.888507 
L 234.502483 -97.628517 
L 234.436616 -95.368528 
L 234.333596 -93.108539 
L 234.236194 -90.84855 
L 234.178119 -88.588561 
L 234.178854 -86.328572 
L 234.252304 -84.068583 
L 234.423128 -81.808593 
L 234.73905 -79.548604 
L 235.272927 -77.288615 
L 236.117246 -75.028626 
L 237.375407 -72.768637 
L 239.145633 -70.508648 
L 241.479387 -68.248659 
L 244.292248 -65.988669 
L 247.238036 -63.72868 
L 249.632718 -61.468691 
L 250.569523 -59.208702 
L 249.2886 -56.948713 
L 245.638135 -54.688724 
L 240.285626 -52.428735 
L 234.455974 -50.168745 
L 229.346802 -47.908756 
L 225.634576 -45.648767 
L 223.367073 -43.388778 
L 222.194026 -41.128789 
z
" id="mbda8d13145" style="stroke:#3f3f3f;stroke-width:2.25;"/>
    </defs>
    <g clip-path="url(#p85254ebc65)">
     <use style="fill:#e1812c;stroke:#3f3f3f;stroke-width:2.25;" x="0" xlink:href="#mbda8d13145" y="288"/>
    </g>
   </g>
   <g id="PolyCollection_5">
    <defs>
     <path d="M 333 -53.775886 
L 332.843377 -53.775886 
L 332.573381 -54.902146 
L 331.962261 -56.028407 
L 330.739998 -57.154667 
L 328.579426 -58.280928 
L 325.203104 -59.407188 
L 320.537536 -60.533449 
L 314.834852 -61.659709 
L 308.667155 -62.78597 
L 302.76209 -63.912231 
L 297.755108 -65.038491 
L 293.994803 -66.164752 
L 291.496556 -67.291012 
L 290.035478 -68.417273 
L 289.294157 -69.543533 
L 288.981627 -70.669794 
L 288.888116 -71.796054 
L 288.884416 -72.922315 
L 288.894799 -74.048576 
L 288.872958 -75.174836 
L 288.795884 -76.301097 
L 288.668876 -77.427357 
L 288.524381 -78.553618 
L 288.407808 -79.679878 
L 288.36 -80.806139 
L 288.408533 -81.932399 
L 288.569354 -83.05866 
L 288.851461 -84.18492 
L 289.256601 -85.311181 
L 289.770496 -86.437442 
L 290.351023 -87.563702 
L 290.928551 -88.689963 
L 291.43136 -89.816223 
L 291.828612 -90.942484 
L 292.161959 -92.068744 
L 292.538893 -93.195005 
L 293.087016 -94.321265 
L 293.894458 -95.447526 
L 294.967934 -96.573787 
L 296.228208 -97.700047 
L 297.545243 -98.826308 
L 298.79792 -99.952568 
L 299.929352 -101.078829 
L 300.968164 -102.205089 
L 302.005315 -103.33135 
L 303.143614 -104.45761 
L 304.449964 -105.583871 
L 305.930272 -106.710131 
L 307.529766 -107.836392 
L 309.153818 -108.962653 
L 310.702816 -110.088913 
L 312.107908 -111.215174 
L 313.348009 -112.341434 
L 314.437658 -113.467695 
L 315.398492 -114.593955 
L 316.241233 -115.720216 
L 316.973428 -116.846476 
L 317.622345 -117.972737 
L 318.248078 -119.098998 
L 318.930843 -120.225258 
L 319.737309 -121.351519 
L 320.685959 -122.477779 
L 321.732872 -123.60404 
L 322.788357 -124.7303 
L 323.757421 -125.856561 
L 324.581853 -126.982821 
L 325.259459 -128.109082 
L 325.831316 -129.235342 
L 326.35068 -130.361603 
L 326.857962 -131.487864 
L 327.375255 -132.614124 
L 327.913373 -133.740385 
L 328.475432 -134.866645 
L 329.050913 -135.992906 
L 329.609488 -137.119166 
L 330.107164 -138.245427 
L 330.50535 -139.371687 
L 330.789894 -140.497948 
L 330.976404 -141.624209 
L 331.099673 -142.750469 
L 331.196216 -143.87673 
L 331.290692 -145.00299 
L 331.391744 -146.129251 
L 331.496792 -147.255511 
L 331.60109 -148.381772 
L 331.704493 -149.508032 
L 331.811484 -150.634293 
L 331.925683 -151.760554 
L 332.044837 -152.886814 
L 332.161414 -154.013075 
L 332.268372 -155.139335 
L 332.364831 -156.265596 
L 332.456548 -157.391856 
L 332.550741 -158.518117 
L 332.649585 -159.644377 
L 332.747652 -160.770638 
L 332.835046 -161.896898 
L 332.903325 -163.023159 
L 332.949638 -164.14942 
L 332.976822 -165.27568 
L 333 -165.27568 
L 333 -165.27568 
L 333 -164.14942 
L 333 -163.023159 
L 333 -161.896898 
L 333 -160.770638 
L 333 -159.644377 
L 333 -158.518117 
L 333 -157.391856 
L 333 -156.265596 
L 333 -155.139335 
L 333 -154.013075 
L 333 -152.886814 
L 333 -151.760554 
L 333 -150.634293 
L 333 -149.508032 
L 333 -148.381772 
L 333 -147.255511 
L 333 -146.129251 
L 333 -145.00299 
L 333 -143.87673 
L 333 -142.750469 
L 333 -141.624209 
L 333 -140.497948 
L 333 -139.371687 
L 333 -138.245427 
L 333 -137.119166 
L 333 -135.992906 
L 333 -134.866645 
L 333 -133.740385 
L 333 -132.614124 
L 333 -131.487864 
L 333 -130.361603 
L 333 -129.235342 
L 333 -128.109082 
L 333 -126.982821 
L 333 -125.856561 
L 333 -124.7303 
L 333 -123.60404 
L 333 -122.477779 
L 333 -121.351519 
L 333 -120.225258 
L 333 -119.098998 
L 333 -117.972737 
L 333 -116.846476 
L 333 -115.720216 
L 333 -114.593955 
L 333 -113.467695 
L 333 -112.341434 
L 333 -111.215174 
L 333 -110.088913 
L 333 -108.962653 
L 333 -107.836392 
L 333 -106.710131 
L 333 -105.583871 
L 333 -104.45761 
L 333 -103.33135 
L 333 -102.205089 
L 333 -101.078829 
L 333 -99.952568 
L 333 -98.826308 
L 333 -97.700047 
L 333 -96.573787 
L 333 -95.447526 
L 333 -94.321265 
L 333 -93.195005 
L 333 -92.068744 
L 333 -90.942484 
L 333 -89.816223 
L 333 -88.689963 
L 333 -87.563702 
L 333 -86.437442 
L 333 -85.311181 
L 333 -84.18492 
L 333 -83.05866 
L 333 -81.932399 
L 333 -80.806139 
L 333 -79.679878 
L 333 -78.553618 
L 333 -77.427357 
L 333 -76.301097 
L 333 -75.174836 
L 333 -74.048576 
L 333 -72.922315 
L 333 -71.796054 
L 333 -70.669794 
L 333 -69.543533 
L 333 -68.417273 
L 333 -67.291012 
L 333 -66.164752 
L 333 -65.038491 
L 333 -63.912231 
L 333 -62.78597 
L 333 -61.659709 
L 333 -60.533449 
L 333 -59.407188 
L 333 -58.280928 
L 333 -57.154667 
L 333 -56.028407 
L 333 -54.902146 
L 333 -53.775886 
z
" id="m7309956928" style="stroke:#3f3f3f;stroke-width:2.25;"/>
    </defs>
    <g clip-path="url(#p85254ebc65)">
     <use style="fill:#3274a1;stroke:#3f3f3f;stroke-width:2.25;" x="0" xlink:href="#m7309956928" y="288"/>
    </g>
   </g>
   <g id="PolyCollection_6">
    <defs>
     <path d="M 333.408686 -61.649288 
L 333 -61.649288 
L 333 -63.736008 
L 333 -65.822728 
L 333 -67.909447 
L 333 -69.996167 
L 333 -72.082887 
L 333 -74.169607 
L 333 -76.256327 
L 333 -78.343047 
L 333 -80.429766 
L 333 -82.516486 
L 333 -84.603206 
L 333 -86.689926 
L 333 -88.776646 
L 333 -90.863366 
L 333 -92.950086 
L 333 -95.036805 
L 333 -97.123525 
L 333 -99.210245 
L 333 -101.296965 
L 333 -103.383685 
L 333 -105.470405 
L 333 -107.557124 
L 333 -109.643844 
L 333 -111.730564 
L 333 -113.817284 
L 333 -115.904004 
L 333 -117.990724 
L 333 -120.077443 
L 333 -122.164163 
L 333 -124.250883 
L 333 -126.337603 
L 333 -128.424323 
L 333 -130.511043 
L 333 -132.597762 
L 333 -134.684482 
L 333 -136.771202 
L 333 -138.857922 
L 333 -140.944642 
L 333 -143.031362 
L 333 -145.118082 
L 333 -147.204801 
L 333 -149.291521 
L 333 -151.378241 
L 333 -153.464961 
L 333 -155.551681 
L 333 -157.638401 
L 333 -159.72512 
L 333 -161.81184 
L 333 -163.89856 
L 333 -165.98528 
L 333 -168.072 
L 333 -170.15872 
L 333 -172.245439 
L 333 -174.332159 
L 333 -176.418879 
L 333 -178.505599 
L 333 -180.592319 
L 333 -182.679039 
L 333 -184.765758 
L 333 -186.852478 
L 333 -188.939198 
L 333 -191.025918 
L 333 -193.112638 
L 333 -195.199358 
L 333 -197.286078 
L 333 -199.372797 
L 333 -201.459517 
L 333 -203.546237 
L 333 -205.632957 
L 333 -207.719677 
L 333 -209.806397 
L 333 -211.893116 
L 333 -213.979836 
L 333 -216.066556 
L 333 -218.153276 
L 333 -220.239996 
L 333 -222.326716 
L 333 -224.413435 
L 333 -226.500155 
L 333 -228.586875 
L 333 -230.673595 
L 333 -232.760315 
L 333 -234.847035 
L 333 -236.933754 
L 333 -239.020474 
L 333 -241.107194 
L 333 -243.193914 
L 333 -245.280634 
L 333 -247.367354 
L 333 -249.454074 
L 333 -251.540793 
L 333 -253.627513 
L 333 -255.714233 
L 333 -257.800953 
L 333 -259.887673 
L 333 -261.974393 
L 333 -264.061112 
L 333 -266.147832 
L 333 -268.234552 
L 333.092504 -268.234552 
L 333.092504 -268.234552 
L 333.174851 -266.147832 
L 333.308567 -264.061112 
L 333.509302 -261.974393 
L 333.787946 -259.887673 
L 334.14576 -257.800953 
L 334.5712 -255.714233 
L 335.040409 -253.627513 
L 335.52204 -251.540793 
L 335.985036 -249.454074 
L 336.406333 -247.367354 
L 336.775305 -245.280634 
L 337.093302 -243.193914 
L 337.369057 -241.107194 
L 337.612686 -239.020474 
L 337.831342 -236.933754 
L 338.028253 -234.847035 
L 338.20481 -232.760315 
L 338.363786 -230.673595 
L 338.51147 -228.586875 
L 338.657477 -226.500155 
L 338.812455 -224.413435 
L 338.984935 -222.326716 
L 339.178786 -220.239996 
L 339.39225 -218.153276 
L 339.618812 -216.066556 
L 339.849498 -213.979836 
L 340.07579 -211.893116 
L 340.292186 -209.806397 
L 340.49759 -207.719677 
L 340.695181 -205.632957 
L 340.891065 -203.546237 
L 341.09246 -201.459517 
L 341.306087 -199.372797 
L 341.537042 -197.286078 
L 341.787962 -195.199358 
L 342.058309 -193.112638 
L 342.344009 -191.025918 
L 342.638023 -188.939198 
L 342.932194 -186.852478 
L 343.220016 -184.765758 
L 343.499177 -182.679039 
L 343.772688 -180.592319 
L 344.047982 -178.505599 
L 344.334314 -176.418879 
L 344.639391 -174.332159 
L 344.966332 -172.245439 
L 345.311839 -170.15872 
L 345.66616 -168.072 
L 346.014936 -165.98528 
L 346.342523 -163.89856 
L 346.635852 -161.81184 
L 346.887667 -159.72512 
L 347.098183 -157.638401 
L 347.274719 -155.551681 
L 347.429554 -153.464961 
L 347.576797 -151.378241 
L 347.729354 -149.291521 
L 347.896937 -147.204801 
L 348.085496 -145.118082 
L 348.297782 -143.031362 
L 348.534256 -140.944642 
L 348.793612 -138.857922 
L 349.072614 -136.771202 
L 349.36552 -134.684482 
L 349.66371 -132.597762 
L 349.95612 -130.511043 
L 350.230763 -128.424323 
L 350.477068 -126.337603 
L 350.688375 -124.250883 
L 350.863704 -122.164163 
L 351.008218 -120.077443 
L 351.13221 -117.990724 
L 351.248914 -115.904004 
L 351.371699 -113.817284 
L 351.511331 -111.730564 
L 351.674083 -109.643844 
L 351.861277 -107.557124 
L 352.070362 -105.470405 
L 352.296776 -103.383685 
L 352.53516 -101.296965 
L 352.778321 -99.210245 
L 353.013019 -97.123525 
L 353.212944 -95.036805 
L 353.330969 -92.950086 
L 353.294475 -90.863366 
L 353.008434 -88.776646 
L 352.369884 -86.689926 
L 351.293631 -84.603206 
L 349.743125 -82.516486 
L 347.755338 -80.429766 
L 345.447586 -78.343047 
L 342.999846 -76.256327 
L 340.616247 -74.169607 
L 338.478967 -72.082887 
L 336.711136 -69.996167 
L 335.360685 -67.909447 
L 334.407205 -65.822728 
L 333.784675 -63.736008 
L 333.408686 -61.649288 
z
" id="mb17a1dcae8" style="stroke:#3f3f3f;stroke-width:2.25;"/>
    </defs>
    <g clip-path="url(#p85254ebc65)">
     <use style="fill:#e1812c;stroke:#3f3f3f;stroke-width:2.25;" x="0" xlink:href="#mb17a1dcae8" y="288"/>
    </g>
   </g>
   <g id="patch_3">
    <path clip-path="url(#p85254ebc65)" d="M 109.8 252 
L 109.8 252 
L 109.8 252 
L 109.8 252 
z
" style="fill:#3274a1;stroke:#3f3f3f;stroke-linejoin:miter;stroke-width:1.125;"/>
   </g>
   <g id="patch_4">
    <path clip-path="url(#p85254ebc65)" d="M 109.8 252 
L 109.8 252 
L 109.8 252 
L 109.8 252 
z
" style="fill:#e1812c;stroke:#3f3f3f;stroke-linejoin:miter;stroke-width:1.125;"/>
   </g>
   <g id="line2d_6">
    <path clip-path="url(#p85254ebc65)" d="M 65.6064 234.791177 
L 109.8 234.791177 
" style="fill:none;stroke:#3f3f3f;stroke-dasharray:7.59375,7.59375;stroke-dashoffset:0;stroke-width:2.25;"/>
   </g>
   <g id="line2d_7">
    <path clip-path="url(#p85254ebc65)" d="M 76.918465 228.95136 
L 109.8 228.95136 
" style="fill:none;stroke:#3f3f3f;stroke-dasharray:15.1875,15.1875;stroke-dashoffset:0;stroke-width:2.25;"/>
   </g>
   <g id="line2d_8">
    <path clip-path="url(#p85254ebc65)" d="M 98.406327 215.345829 
L 109.8 215.345829 
" style="fill:none;stroke:#3f3f3f;stroke-dasharray:7.59375,7.59375;stroke-dashoffset:0;stroke-width:2.25;"/>
   </g>
   <g id="line2d_9">
    <path clip-path="url(#p85254ebc65)" d="M 109.8 228.392229 
L 138.596972 228.392229 
" style="fill:none;stroke:#3f3f3f;stroke-dasharray:7.59375,7.59375;stroke-dashoffset:0;stroke-width:2.25;"/>
   </g>
   <g id="line2d_10">
    <path clip-path="url(#p85254ebc65)" d="M 109.8 219.337406 
L 129.935278 219.337406 
" style="fill:none;stroke:#3f3f3f;stroke-dasharray:15.1875,15.1875;stroke-dashoffset:0;stroke-width:2.25;"/>
   </g>
   <g id="line2d_11">
    <path clip-path="url(#p85254ebc65)" d="M 109.8 197.391497 
L 116.173513 197.391497 
" style="fill:none;stroke:#3f3f3f;stroke-dasharray:7.59375,7.59375;stroke-dashoffset:0;stroke-width:2.25;"/>
   </g>
   <g id="line2d_12">
    <path clip-path="url(#p85254ebc65)" d="M 188.206991 229.044549 
L 221.4 229.044549 
" style="fill:none;stroke:#3f3f3f;stroke-dasharray:7.59375,7.59375;stroke-dashoffset:0;stroke-width:2.25;"/>
   </g>
   <g id="line2d_13">
    <path clip-path="url(#p85254ebc65)" d="M 198.104073 210.965966 
L 221.4 210.965966 
" style="fill:none;stroke:#3f3f3f;stroke-dasharray:15.1875,15.1875;stroke-dashoffset:0;stroke-width:2.25;"/>
   </g>
   <g id="line2d_14">
    <path clip-path="url(#p85254ebc65)" d="M 201.75075 192.545691 
L 221.4 192.545691 
" style="fill:none;stroke:#3f3f3f;stroke-dasharray:7.59375,7.59375;stroke-dashoffset:0;stroke-width:2.25;"/>
   </g>
   <g id="line2d_15">
    <path clip-path="url(#p85254ebc65)" d="M 221.4 223.794926 
L 246.979656 223.794926 
" style="fill:none;stroke:#3f3f3f;stroke-dasharray:7.59375,7.59375;stroke-dashoffset:0;stroke-width:2.25;"/>
   </g>
   <g id="line2d_16">
    <path clip-path="url(#p85254ebc65)" d="M 221.4 193.881394 
L 234.20426 193.881394 
" style="fill:none;stroke:#3f3f3f;stroke-dasharray:15.1875,15.1875;stroke-dashoffset:0;stroke-width:2.25;"/>
   </g>
   <g id="line2d_17">
    <path clip-path="url(#p85254ebc65)" d="M 221.4 157.972731 
L 231.003456 157.972731 
" style="fill:none;stroke:#3f3f3f;stroke-dasharray:7.59375,7.59375;stroke-dashoffset:0;stroke-width:2.25;"/>
   </g>
   <g id="line2d_18">
    <path clip-path="url(#p85254ebc65)" d="M 289.314229 213.016114 
L 333 213.016114 
" style="fill:none;stroke:#3f3f3f;stroke-dasharray:7.59375,7.59375;stroke-dashoffset:0;stroke-width:2.25;"/>
   </g>
   <g id="line2d_19">
    <path clip-path="url(#p85254ebc65)" d="M 290.777513 200.404594 
L 333 200.404594 
" style="fill:none;stroke:#3f3f3f;stroke-dasharray:15.1875,15.1875;stroke-dashoffset:0;stroke-width:2.25;"/>
   </g>
   <g id="line2d_20">
    <path clip-path="url(#p85254ebc65)" d="M 301.288483 185.711863 
L 333 185.711863 
" style="fill:none;stroke:#3f3f3f;stroke-dasharray:7.59375,7.59375;stroke-dashoffset:0;stroke-width:2.25;"/>
   </g>
   <g id="line2d_21">
    <path clip-path="url(#p85254ebc65)" d="M 333 184.220846 
L 352.103808 184.220846 
" style="fill:none;stroke:#3f3f3f;stroke-dasharray:7.59375,7.59375;stroke-dashoffset:0;stroke-width:2.25;"/>
   </g>
   <g id="line2d_22">
    <path clip-path="url(#p85254ebc65)" d="M 333 153.220114 
L 349.201865 153.220114 
" style="fill:none;stroke:#3f3f3f;stroke-dasharray:15.1875,15.1875;stroke-dashoffset:0;stroke-width:2.25;"/>
   </g>
   <g id="line2d_23">
    <path clip-path="url(#p85254ebc65)" d="M 333 113.413063 
L 344.522998 113.413063 
" style="fill:none;stroke:#3f3f3f;stroke-dasharray:7.59375,7.59375;stroke-dashoffset:0;stroke-width:2.25;"/>
   </g>
   <g id="patch_5">
    <path d="M 54 252 
L 54 34.56 
" style="fill:none;stroke:#333333;stroke-linecap:square;stroke-linejoin:miter;stroke-width:1.875;"/>
   </g>
   <g id="patch_6">
    <path d="M 388.8 252 
L 388.8 34.56 
" style="fill:none;stroke:#333333;stroke-linecap:square;stroke-linejoin:miter;stroke-width:1.875;"/>
   </g>
   <g id="patch_7">
    <path d="M 54 252 
L 388.8 252 
" style="fill:none;stroke:#333333;stroke-linecap:square;stroke-linejoin:miter;stroke-width:1.875;"/>
   </g>
   <g id="patch_8">
    <path d="M 54 34.56 
L 388.8 34.56 
" style="fill:none;stroke:#333333;stroke-linecap:square;stroke-linejoin:miter;stroke-width:1.875;"/>
   </g>
   <g id="legend_1">
    <g id="patch_9">
     <path d="M 65.55 122.369063 
L 178.639453 122.369063 
Q 181.939453 122.369063 181.939453 119.069063 
L 181.939453 46.11 
Q 181.939453 42.81 178.639453 42.81 
L 65.55 42.81 
Q 62.25 42.81 62.25 46.11 
L 62.25 119.069063 
Q 62.25 122.369063 65.55 122.369063 
z
" style="fill:#eaeaf2;opacity:0.8;stroke:#cccccc;stroke-linejoin:miter;stroke-width:1.5;"/>
    </g>
    <g id="text_11">
     <!-- count_type -->
     <g style="fill:#262626;" transform="translate(72.096914 63.087187)scale(0.18 -0.18)">
      <defs>
       <path d="M 50.984375 -16.609375 
L 50.984375 -23.578125 
L -0.984375 -23.578125 
L -0.984375 -16.609375 
z
" id="DejaVuSans-95"/>
      </defs>
      <use xlink:href="#DejaVuSans-99"/>
      <use x="54.980469" xlink:href="#DejaVuSans-111"/>
      <use x="116.162109" xlink:href="#DejaVuSans-117"/>
      <use x="179.541016" xlink:href="#DejaVuSans-110"/>
      <use x="242.919922" xlink:href="#DejaVuSans-116"/>
      <use x="282.128906" xlink:href="#DejaVuSans-95"/>
      <use x="332.128906" xlink:href="#DejaVuSans-116"/>
      <use x="371.337891" xlink:href="#DejaVuSans-121"/>
      <use x="430.517578" xlink:href="#DejaVuSans-112"/>
      <use x="493.994141" xlink:href="#DejaVuSans-101"/>
     </g>
    </g>
    <g id="patch_10">
     <path d="M 68.85 88.118672 
L 101.85 88.118672 
L 101.85 76.568672 
L 68.85 76.568672 
z
" style="fill:#3274a1;stroke:#3f3f3f;stroke-linejoin:miter;stroke-width:1.125;"/>
    </g>
    <g id="text_12">
     <!-- ngenes -->
     <g style="fill:#262626;" transform="translate(115.05 88.118672)scale(0.165 -0.165)">
      <defs>
       <path d="M 45.40625 27.984375 
Q 45.40625 37.75 41.375 43.109375 
Q 37.359375 48.484375 30.078125 48.484375 
Q 22.859375 48.484375 18.828125 43.109375 
Q 14.796875 37.75 14.796875 27.984375 
Q 14.796875 18.265625 18.828125 12.890625 
Q 22.859375 7.515625 30.078125 7.515625 
Q 37.359375 7.515625 41.375 12.890625 
Q 45.40625 18.265625 45.40625 27.984375 
z
M 54.390625 6.78125 
Q 54.390625 -7.171875 48.1875 -13.984375 
Q 42 -20.796875 29.203125 -20.796875 
Q 24.46875 -20.796875 20.265625 -20.09375 
Q 16.0625 -19.390625 12.109375 -17.921875 
L 12.109375 -9.1875 
Q 16.0625 -11.328125 19.921875 -12.34375 
Q 23.78125 -13.375 27.78125 -13.375 
Q 36.625 -13.375 41.015625 -8.765625 
Q 45.40625 -4.15625 45.40625 5.171875 
L 45.40625 9.625 
Q 42.625 4.78125 38.28125 2.390625 
Q 33.9375 0 27.875 0 
Q 17.828125 0 11.671875 7.65625 
Q 5.515625 15.328125 5.515625 27.984375 
Q 5.515625 40.671875 11.671875 48.328125 
Q 17.828125 56 27.875 56 
Q 33.9375 56 38.28125 53.609375 
Q 42.625 51.21875 45.40625 46.390625 
L 45.40625 54.6875 
L 54.390625 54.6875 
z
" id="DejaVuSans-103"/>
      </defs>
      <use xlink:href="#DejaVuSans-110"/>
      <use x="63.378906" xlink:href="#DejaVuSans-103"/>
      <use x="126.855469" xlink:href="#DejaVuSans-101"/>
      <use x="188.378906" xlink:href="#DejaVuSans-110"/>
      <use x="251.757812" xlink:href="#DejaVuSans-101"/>
      <use x="313.28125" xlink:href="#DejaVuSans-115"/>
     </g>
    </g>
    <g id="patch_11">
     <path d="M 68.85 112.337578 
L 101.85 112.337578 
L 101.85 100.787578 
L 68.85 100.787578 
z
" style="fill:#e1812c;stroke:#3f3f3f;stroke-linejoin:miter;stroke-width:1.125;"/>
    </g>
    <g id="text_13">
     <!-- numis -->
     <g style="fill:#262626;" transform="translate(115.05 112.337578)scale(0.165 -0.165)">
      <use xlink:href="#DejaVuSans-110"/>
      <use x="63.378906" xlink:href="#DejaVuSans-117"/>
      <use x="126.757812" xlink:href="#DejaVuSans-109"/>
      <use x="224.169922" xlink:href="#DejaVuSans-105"/>
      <use x="251.953125" xlink:href="#DejaVuSans-115"/>
     </g>
    </g>
   </g>
  </g>
 </g>
 <defs>
  <clipPath id="p85254ebc65">
   <rect height="217.44" width="334.8" x="54" y="34.56"/>
  </clipPath>
 </defs>
</svg>
